<svg width="50" height="46" viewBox="0 0 50 46" fill="none" xmlns="http://www.w3.org/2000/svg">
<g clip-path="url(#clip0_259_2340)">
<path d="M31.3954 21.8499L11.6279 18.3999V43.892C11.6279 45.0561 12.5822 45.9999 13.7593 45.9999H47.8687C49.0458 45.9999 50 45.0561 50 43.892V34.4999L31.3954 21.8499Z" fill="#185C37"/>
<path d="M31.3954 0H13.7593C12.5822 0 11.6279 0.943756 11.6279 2.10794V11.5L31.3954 23L41.8605 26.45L50 23V11.5L31.3954 0Z" fill="#21A366"/>
<path d="M11.6279 11.5H31.3954V23H11.6279V11.5Z" fill="#107C41"/>
<path opacity="0.1" d="M25.7756 9.2002H11.6279V37.9502H25.7756C26.9512 37.9464 27.9032 37.0049 27.907 35.8423V11.3081C27.9032 10.1455 26.9512 9.20397 25.7756 9.2002Z" fill="black"/>
<path opacity="0.2" d="M24.6128 10.3501H11.6279V39.1001H24.6128C25.7884 39.0963 26.7404 38.1548 26.7442 36.9922V12.458C26.7404 11.2954 25.7884 10.3539 24.6128 10.3501Z" fill="black"/>
<path opacity="0.2" d="M24.6128 10.3501H11.6279V36.8001H24.6128C25.7884 36.7963 26.7404 35.8548 26.7442 34.6921V12.458C26.7404 11.2954 25.7884 10.3539 24.6128 10.3501Z" fill="black"/>
<path opacity="0.2" d="M23.45 10.3501H11.6279V36.8001H23.45C24.6256 36.7963 25.5776 35.8548 25.5814 34.6921V12.458C25.5776 11.2954 24.6256 10.3539 23.45 10.3501Z" fill="black"/>
<path d="M2.13139 10.3501H23.45C24.6271 10.3501 25.5814 11.2939 25.5814 12.458V33.5421C25.5814 34.7063 24.6271 35.6501 23.45 35.6501H2.13139C0.954253 35.6501 0 34.7063 0 33.5422V12.458C0 11.2939 0.954253 10.3501 2.13139 10.3501Z" fill="url(#paint0_linear_259_2340)"/>
<path d="M6.60107 29.8515L11.0848 22.9803L6.97666 16.147H10.2813L12.5232 20.517C12.7302 20.9321 12.872 21.2403 12.9488 21.4439H12.9778C13.1251 21.1127 13.2801 20.7911 13.4429 20.479L15.8394 16.1493H18.8732L14.6604 22.9423L18.9802 29.8515H15.7523L13.1627 25.0549C13.0407 24.8508 12.9372 24.6364 12.8534 24.4143H12.8151C12.7392 24.6319 12.6385 24.8403 12.515 25.0353L9.84877 29.8515H6.60107Z" fill="white"/>
<path d="M47.8688 0H31.3955V11.5H50.0002V2.10794C50.0002 0.943756 49.0459 0 47.8688 0Z" fill="#33C481"/>
<path d="M31.3955 23H50.0002V34.5H31.3955V23Z" fill="#107C41"/>
</g>
<defs>
<linearGradient id="paint0_linear_259_2340" x1="4.44401" y1="8.70299" x2="20.862" y2="37.4545" gradientUnits="userSpaceOnUse">
<stop stop-color="#18884F"/>
<stop offset="0.5" stop-color="#117E43"/>
<stop offset="1" stop-color="#0B6631"/>
</linearGradient>
<clipPath id="clip0_259_2340">
<rect width="50" height="46" fill="white"/>
</clipPath>
</defs>
</svg>
