<?xml version="1.0" encoding="UTF-8"?><svg id="uuid-5fa8223b-3d4f-41d9-bf68-9827bd90d6c6" xmlns="http://www.w3.org/2000/svg" xmlns:xlink="http://www.w3.org/1999/xlink" viewBox="0 0 38.75 37.5">
<title>Microsoft PowerPoint 2025 logo - Brandlogos.net</title><defs><linearGradient id="uuid-e3e7725d-223c-4d67-b948-47e0bb14a5ea" x1="28.97" y1="251.33" x2="5.99" y2="229.35" gradientTransform="translate(0 261.5) scale(1 -1)" gradientUnits="userSpaceOnUse"><stop offset=".06" stop-color="#ff7f48"/><stop offset="1" stop-color="#e5495b"/></linearGradient><radialGradient id="uuid-d7a8f0f1-6ae8-4f2d-bd26-01e2819e2ccc" cx="-612.05" cy="590.98" fx="-612.05" fy="590.98" r="1" gradientTransform="translate(-42742.92 -10174.99) rotate(135) scale(37.65 -63.36)" gradientUnits="userSpaceOnUse"><stop offset=".15" stop-color="#aa1d2d"/><stop offset=".38" stop-color="#d12b18" stop-opacity=".44"/><stop offset=".6" stop-color="#ff3c00" stop-opacity="0"/></radialGradient><radialGradient id="uuid-90b8bc32-ffe9-4bb4-a3a0-15905acf87cc" cx="-595.11" cy="572.38" fx="-595.11" fy="572.38" r="1" gradientTransform="translate(35001.81 24423.33) rotate(-25.28) scale(35.69 -64.65)" gradientUnits="userSpaceOnUse"><stop offset=".41" stop-color="#ff66fb"/><stop offset="1" stop-color="#ea3d01" stop-opacity="0"/></radialGradient><linearGradient id="uuid-32be6031-fc1a-4408-a9f6-8b0b18dda45d" x1="19.88" y1="243.53" x2="40.06" y2="258.49" gradientTransform="translate(0 261.5) scale(1 -1)" gradientUnits="userSpaceOnUse"><stop offset=".31" stop-color="#ff6e30"/><stop offset=".63" stop-color="#ffa05c"/></linearGradient><radialGradient id="uuid-cef65a80-e9c5-462e-8601-4be97b369d54" cx="-579.64" cy="572.8" fx="-579.64" fy="572.8" r="1" gradientTransform="translate(11053.36 15857.49) rotate(11.83) scale(24.24 -23.11)" gradientUnits="userSpaceOnUse"><stop offset=".79" stop-color="#ffa05c" stop-opacity="0"/><stop offset=".9" stop-color="#ffce84"/></radialGradient><radialGradient id="uuid-9cbf90a8-a900-4c4d-9a74-aa4a3d0fbf44" cx="-593.05" cy="555.43" fx="-593.05" fy="555.43" r="1" gradientTransform="translate(19284.83 2949.6) rotate(-33.2) scale(24.48 -23.41)" gradientUnits="userSpaceOnUse"><stop offset=".3" stop-color="#ff99e9"/><stop offset=".73" stop-color="#ff99e9" stop-opacity="0"/></radialGradient><radialGradient id="uuid-4332d7d4-7e11-4269-a979-eeb0043bf201" cx="-600.49" cy="553" fx="-600.49" fy="553" r="1" gradientTransform="translate(20224.12 -3106.17) rotate(-48.86) scale(26.06 -23.8)" gradientUnits="userSpaceOnUse"><stop offset="0" stop-color="#fd6ef9"/><stop offset=".64" stop-color="#f94"/><stop offset=".85" stop-color="#fcc479"/></radialGradient><radialGradient id="uuid-d9d50b57-f772-4909-9e5d-5a4ca0de5b47" cx="-589.84" cy="602.17" fx="-589.84" fy="602.17" r="1" gradientTransform="translate(-18982.84 5106.67) rotate(98.39) scale(13.26 -29.98)" gradientUnits="userSpaceOnUse"><stop offset=".14" stop-color="#ff8d13"/><stop offset=".54" stop-color="#ff7f29" stop-opacity="0"/></radialGradient><radialGradient id="uuid-fe00c33c-a5a9-41df-a8b8-10f7a2a5a20a" cx="-577.98" cy="589.77" fx="-577.98" fy="589.77" r="1" gradientTransform="translate(-188.62 18701.74) rotate(45) scale(22.63 -22.63)" gradientUnits="userSpaceOnUse"><stop offset="0" stop-color="#f8193e"/><stop offset=".94" stop-color="#920616"/></radialGradient><radialGradient id="uuid-9c5e7a6a-7dd3-4634-8509-d80e261cc232" cx="-578.59" cy="628.01" fx="-578.59" fy="628.01" r="1" gradientTransform="translate(-7999.19 6507.56) rotate(90) scale(11.2 -12.75)" gradientUnits="userSpaceOnUse"><stop offset=".58" stop-color="#ffb055" stop-opacity="0"/><stop offset=".97" stop-color="#fff2be"/></radialGradient></defs><circle cx="20" cy="18.75" r="18.75" style="fill:url(#uuid-e3e7725d-223c-4d67-b948-47e0bb14a5ea);"/><circle cx="20" cy="18.75" r="18.75" style="fill:url(#uuid-d7a8f0f1-6ae8-4f2d-bd26-01e2819e2ccc);"/><circle cx="20" cy="18.75" r="18.75" style="fill:url(#uuid-90b8bc32-ffe9-4bb4-a3a0-15905acf87cc); fill-opacity:.5;"/><path d="M20,0c10.35,0,18.75,8.39,18.75,18.75,0,3.44-.93,6.67-2.55,9.45l.3-.67c1.86-4.12-1.16-8.78-5.68-8.78h-7.46c-1.86,0-3.36-1.5-3.36-3.35v-7.48c0-4.52-4.67-7.53-8.79-5.67l-.6.27c2.76-1.6,5.97-2.52,9.39-2.52Z" style="fill:url(#uuid-32be6031-fc1a-4408-a9f6-8b0b18dda45d);"/><path d="M20,0c10.35,0,18.75,8.39,18.75,18.75,0,3.44-.93,6.67-2.55,9.45l.3-.67c1.86-4.12-1.16-8.78-5.68-8.78h-7.46c-1.86,0-3.36-1.5-3.36-3.35v-7.48c0-4.52-4.67-7.53-8.79-5.67l-.6.27c2.76-1.6,5.97-2.52,9.39-2.52Z" style="fill:url(#uuid-cef65a80-e9c5-462e-8601-4be97b369d54);"/><path d="M20,0c10.35,0,18.75,8.39,18.75,18.75,0,3.44-.93,6.67-2.55,9.45l.3-.67c1.86-4.12-1.16-8.78-5.68-8.78h-7.46c-1.86,0-3.36-1.5-3.36-3.35v-7.48c0-4.52-4.67-7.53-8.79-5.67l-.6.27c2.76-1.6,5.97-2.52,9.39-2.52Z" style="fill:url(#uuid-9cbf90a8-a900-4c4d-9a74-aa4a3d0fbf44); fill-opacity:.8;"/><path d="M20,0c10.35,0,18.75,8.39,18.75,18.75,0,3.44-.93,6.67-2.55,9.45l.3-.67c1.86-4.12-1.16-8.78-5.68-8.78h-7.46c-1.86,0-3.36-1.5-3.36-3.35v-7.48c0-4.52-4.67-7.53-8.79-5.67l-.6.27c2.76-1.6,5.97-2.52,9.39-2.52Z" style="fill:url(#uuid-4332d7d4-7e11-4269-a979-eeb0043bf201);"/><path d="M20,0c10.35,0,18.75,8.39,18.75,18.75,0,3.44-.93,6.67-2.55,9.45l.3-.67c1.86-4.12-1.16-8.78-5.68-8.78h-7.46c-1.86,0-3.36-1.5-3.36-3.35v-7.48c0-4.52-4.67-7.53-8.79-5.67l-.6.27c2.76-1.6,5.97-2.52,9.39-2.52Z" style="fill:url(#uuid-d9d50b57-f772-4909-9e5d-5a4ca0de5b47);"/><rect y="17.75" width="16" height="16" rx="3.25" ry="3.25" style="fill:url(#uuid-fe00c33c-a5a9-41df-a8b8-10f7a2a5a20a);"/><rect y="17.75" width="16" height="16" rx="3.25" ry="3.25" style="fill:url(#uuid-9c5e7a6a-7dd3-4634-8509-d80e261cc232); fill-opacity:.3;"/><path d="M7.22,27.34v2.98h-2.06v-9.14h3.18c1.14,0,2.01.25,2.6.75.6.5.9,1.23.9,2.21s-.34,1.79-1.01,2.36c-.67.57-1.56.85-2.69.85h-.92ZM7.22,22.76v3h.86c.51,0,.9-.13,1.18-.4.28-.27.41-.65.41-1.15,0-.46-.14-.82-.41-1.07-.27-.25-.65-.38-1.15-.38h-.89Z" style="fill:#fff;"/></svg>