<svg width="50" height="47" viewBox="0 0 50 47" fill="none" xmlns="http://www.w3.org/2000/svg">
<g clip-path="url(#clip0_259_2182)">
<path d="M30.2325 25.85L26.7441 0H26.4836C13.799 0.0374211 3.52531 10.419 3.48828 23.2368V23.5L30.2325 25.85Z" fill="#ED6C47"/>
<path d="M27.0046 0H26.7441V23.5L38.372 28.2L49.9999 23.5V23.2368C49.9629 10.419 39.6892 0.0374211 27.0046 0Z" fill="#4B84FF"/>
<path d="M49.9999 23.5V23.7585C49.9635 36.5792 39.6873 46.9632 26.9999 47H26.4883C13.8008 46.9632 3.52469 36.5792 3.48828 23.7585V23.5H49.9999Z" fill="#D35230"/>
<path opacity="0.1" d="M27.9069 11.5502V36.6247C27.9011 37.496 27.3786 38.2787 26.5813 38.6104C26.3275 38.7189 26.0546 38.7749 25.779 38.7749H8.97668C8.6511 38.3989 8.33716 37.9994 8.04645 37.5999C5.084 33.6065 3.48445 28.7493 3.48831 23.7584V23.2414C3.48151 18.7398 4.78347 14.3353 7.23249 10.5749C7.48831 10.1754 7.75574 9.7759 8.04645 9.3999H25.779C26.9505 9.40888 27.8981 10.3663 27.9069 11.5502Z" fill="black"/>
<path opacity="0.2" d="M26.7442 12.7255V37.8C26.7441 38.0785 26.6887 38.3542 26.5814 38.6107C26.2531 39.4164 25.4785 39.9444 24.6162 39.9502H10.0348C9.66693 39.5728 9.31393 39.1808 8.97668 38.7752C8.6511 38.3992 8.33716 37.9997 8.04645 37.6002C5.084 33.6068 3.48445 28.7495 3.48831 23.7587V23.2417C3.48151 18.7401 4.78347 14.3356 7.23249 10.5752H24.6162C25.7878 10.5841 26.7353 11.5416 26.7442 12.7255Z" fill="black"/>
<path opacity="0.2" d="M26.7441 12.7254V35.4499C26.7353 36.6337 25.7877 37.5912 24.6162 37.6002H8.04645C5.084 33.6068 3.48445 28.7495 3.48831 23.7587V23.2417C3.48151 18.7401 4.78347 14.3356 7.23249 10.5752H24.6162C25.7877 10.5841 26.7353 11.5416 26.7441 12.7254Z" fill="black"/>
<path opacity="0.2" d="M25.5813 12.7254V35.4499C25.5725 36.6337 24.625 37.5912 23.4534 37.6002H8.04645C5.084 33.6068 3.48445 28.7495 3.48831 23.7587V23.2417C3.48151 18.7401 4.78347 14.3356 7.23249 10.5752H23.4534C24.625 10.5841 25.5725 11.5416 25.5813 12.7254Z" fill="black"/>
<path d="M2.13138 10.5752H23.45C24.6271 10.5752 25.5814 11.5395 25.5814 12.729V34.2714C25.5814 35.4609 24.6271 36.4252 23.45 36.4252H2.13138C0.95427 36.4252 0 35.4609 0 34.2714V12.729C0 11.5395 0.95427 10.5752 2.13138 10.5752Z" fill="url(#paint0_linear_259_2182)"/>
<path d="M13.0231 16.3196C14.4109 16.225 15.7867 16.6323 16.9045 17.4688C17.8368 18.3098 18.335 19.5371 18.2557 20.7975C18.2709 21.6737 18.0399 22.5362 17.5894 23.285C17.1334 24.0209 16.4763 24.6077 15.6975 24.9746C14.8072 25.3931 13.8338 25.5997 12.8522 25.5786H10.1557V30.6428H7.39404V16.3196H13.0231ZM10.1534 23.3908H12.5301C13.2836 23.4467 14.0312 23.2213 14.6313 22.7574C15.1276 22.2763 15.3877 21.5979 15.3418 20.9045C15.3418 19.326 14.434 18.5368 12.6185 18.5368H10.1534V23.3908H10.1534Z" fill="white"/>
</g>
<defs>
<linearGradient id="paint0_linear_259_2182" x1="4.44401" y1="8.89228" x2="21.4003" y2="37.9547" gradientUnits="userSpaceOnUse">
<stop stop-color="#CA4C28"/>
<stop offset="0.5" stop-color="#C5401E"/>
<stop offset="1" stop-color="#B62F14"/>
</linearGradient>
<clipPath id="clip0_259_2182">
<rect width="50" height="47" fill="white"/>
</clipPath>
</defs>
</svg>
