<svg width="50" height="48" viewBox="0 0 50 48" fill="none" xmlns="http://www.w3.org/2000/svg">
<g clip-path="url(#clip0_259_2211)">
<path d="M34.8754 18H47.7905C49.0107 18 49.9998 19.0208 49.9998 20.28V32.4204C49.9998 37.0483 46.3644 40.8 41.88 40.8H41.8416C37.3572 40.8006 33.7214 37.0495 33.7207 32.4216C33.7207 32.4212 33.7207 32.4208 33.7207 32.4204V19.1916C33.7207 18.5335 34.2377 18 34.8754 18Z" fill="#5059C9"/>
<path d="M43.6046 15.5998C46.4945 15.5998 48.8372 13.1821 48.8372 10.1998C48.8372 7.21747 46.4945 4.7998 43.6046 4.7998C40.7148 4.7998 38.3721 7.21747 38.3721 10.1998C38.3721 13.1821 40.7148 15.5998 43.6046 15.5998Z" fill="#5059C9"/>
<path d="M27.3257 15.6C31.5 15.6 34.8839 12.1078 34.8839 7.80001C34.8839 3.49218 31.5 0 27.3257 0C23.1515 0 19.7676 3.49218 19.7676 7.80001C19.7676 12.1078 23.1515 15.6 27.3257 15.6Z" fill="#7B83EB"/>
<path d="M37.4033 18H16.0847C14.8791 18.0308 13.9254 19.0634 13.9533 20.3076V34.1544C13.785 41.6211 19.5091 47.8173 26.744 48C33.979 47.8173 39.7031 41.6211 39.5347 34.1544V20.3076C39.5627 19.0634 38.609 18.0308 37.4033 18Z" fill="#7B83EB"/>
<path opacity="0.1" d="M27.9067 18V37.404C27.901 38.2938 27.3785 39.0932 26.5812 39.432C26.3273 39.5428 26.0545 39.5999 25.7788 39.6H14.9765C14.8254 39.204 14.6858 38.808 14.5695 38.4C14.1625 37.023 13.9548 35.5916 13.9532 34.152V20.304C13.9253 19.0617 14.8774 18.0308 16.0811 18H27.9067Z" fill="black"/>
<path opacity="0.2" d="M26.744 18V38.604C26.7439 38.8884 26.6886 39.17 26.5812 39.432C26.2529 40.2548 25.4783 40.794 24.6161 40.8H15.523C15.3253 40.404 15.1393 40.008 14.9765 39.6C14.8137 39.192 14.6858 38.808 14.5695 38.4C14.1625 37.0231 13.9548 35.5916 13.9532 34.152V20.304C13.9253 19.0617 14.8774 18.0308 16.0811 18H26.744Z" fill="black"/>
<path opacity="0.2" d="M26.7444 18V36.204C26.7356 37.413 25.7881 38.3909 24.6165 38.4H14.57C14.163 37.0231 13.9553 35.5916 13.9537 34.152V20.304C13.9258 19.0617 14.8779 18.0308 16.0816 18H26.7444Z" fill="black"/>
<path opacity="0.2" d="M25.5816 18V36.204C25.5728 37.413 24.6253 38.3909 23.4537 38.4H14.57C14.163 37.0231 13.9553 35.5916 13.9537 34.152V20.304C13.9258 19.0617 14.8779 18.0308 16.0816 18H25.5816Z" fill="black"/>
<path opacity="0.1" d="M27.9068 11.7961V15.5761C27.7091 15.5881 27.5231 15.6001 27.3254 15.6001C27.1277 15.6001 26.9417 15.5881 26.744 15.5761C26.3515 15.5492 25.9623 15.4849 25.5812 15.3841C23.2266 14.8086 21.2812 13.1044 20.3487 10.8001C20.1882 10.4131 20.0636 10.0113 19.9766 9.6001H25.7789C26.9523 9.60468 27.9023 10.5852 27.9068 11.7961Z" fill="black"/>
<path opacity="0.2" d="M26.744 12.9958V15.5758C26.3515 15.5489 25.9622 15.4846 25.5812 15.3838C23.2265 14.8083 21.2812 13.1041 20.3486 10.7998H24.6161C25.7894 10.8044 26.7395 11.7849 26.744 12.9958Z" fill="black"/>
<path opacity="0.2" d="M26.744 12.9958V15.5758C26.3515 15.5489 25.9622 15.4846 25.5812 15.3838C23.2265 14.8083 21.2812 13.1041 20.3486 10.7998H24.6161C25.7894 10.8044 26.7395 11.7849 26.744 12.9958Z" fill="black"/>
<path opacity="0.2" d="M25.5812 12.9958V15.3838C23.2265 14.8083 21.2812 13.1041 20.3486 10.7998H23.4533C24.6267 10.8044 25.5767 11.7849 25.5812 12.9958Z" fill="black"/>
<path d="M2.13139 10.7998H23.45C24.6271 10.7998 25.5814 11.7846 25.5814 12.9994V35.0002C25.5814 36.215 24.6271 37.1998 23.45 37.1998H2.13139C0.954244 37.1998 0 36.215 0 35.0002V12.9994C0 11.7846 0.954266 10.7998 2.13139 10.7998Z" fill="url(#paint0_linear_259_2211)"/>
<path d="M18.4003 19.1738H14.1386V31.1498H11.4235V19.1738H7.18164V16.8506H18.4003V19.1738Z" fill="white"/>
</g>
<defs>
<linearGradient id="paint0_linear_259_2211" x1="4.44401" y1="9.08108" x2="21.9385" y2="38.4412" gradientUnits="userSpaceOnUse">
<stop stop-color="#5A62C3"/>
<stop offset="0.5" stop-color="#4D55BD"/>
<stop offset="1" stop-color="#3940AB"/>
</linearGradient>
<clipPath id="clip0_259_2211">
<rect width="50" height="48" fill="white"/>
</clipPath>
</defs>
</svg>
