<?xml version="1.0" encoding="UTF-8"?><svg id="uuid-72ca6ffa-f110-4d41-b917-74fd5cf10954" xmlns="http://www.w3.org/2000/svg" xmlns:xlink="http://www.w3.org/1999/xlink" viewBox="0 0 43.2 28.72">
<title>Microsoft OneDrive 2025 logo - Brandlogos.net</title><defs><radialGradient id="uuid-612b8011-401c-4f74-a793-6cfbf519339f" cx="-583.41" cy="538.51" fx="-583.41" fy="538.51" r="1" gradientTransform="translate(-4246.67 13897.5) rotate(50.15) scale(13.62 -22.58)" gradientUnits="userSpaceOnUse"><stop offset="0" stop-color="#4894fe"/><stop offset=".7" stop-color="#0934b3"/></radialGradient><radialGradient id="uuid-6da966f3-18ef-4463-81d6-1b317462a2bf" cx="-635.98" cy="543.84" fx="-635.98" fy="543.84" r="1" gradientTransform="translate(-42182.15 12669.98) rotate(130.92) scale(58.55 -43.39)" gradientUnits="userSpaceOnUse"><stop offset=".17" stop-color="#23c0fe"/><stop offset=".53" stop-color="#1c91ff"/></radialGradient><radialGradient id="uuid-46cb7010-5617-4966-9c38-c51ebc4c52b3" cx="-693.84" cy="522.68" fx="-693.84" fy="522.68" r="1" gradientTransform="translate(2841.93 -16212.38) rotate(-139.99) scale(11.9 -27.25)" gradientUnits="userSpaceOnUse"><stop offset="0" stop-color="#fff"/><stop offset=".66" stop-color="#adc0ff" stop-opacity="0"/></radialGradient><radialGradient id="uuid-ec1618a8-6d85-4e96-9542-b880400593a1" cx="-687.01" cy="520.96" fx="-687.01" fy="520.96" r="1" gradientTransform="translate(-157.09 -14037.17) rotate(-139.76) scale(13.42 -20.38)" gradientUnits="userSpaceOnUse"><stop offset="0" stop-color="#033acc"/><stop offset="1" stop-color="#368eff" stop-opacity="0"/></radialGradient><radialGradient id="uuid-0e5ed232-526a-4a56-950b-bd2c01b18482" cx="-613.76" cy="541.04" fx="-613.76" fy="541.04" r="1" gradientTransform="translate(-8584.57 23415.71) rotate(66.57) scale(29.44 -31.78)" gradientUnits="userSpaceOnUse"><stop offset=".59" stop-color="#3464e3" stop-opacity="0"/><stop offset="1" stop-color="#033acc"/></radialGradient><radialGradient id="uuid-6cb47f3c-4818-4d3b-9b9e-9f717f3a2174" cx="-637.98" cy="537.73" fx="-637.98" fy="537.73" r="1" gradientTransform="translate(-45296.3 -6267.55) rotate(135) scale(43.31 -67.85)" gradientUnits="userSpaceOnUse"><stop offset="0" stop-color="#4bfde8"/><stop offset=".54" stop-color="#4bfde8" stop-opacity="0"/></radialGradient><linearGradient id="uuid-230ad4ac-2f9c-4d42-a05e-5f20f6e21c78" x1="27.59" y1="126.02" x2="27.59" y2="145.6" gradientTransform="translate(0 154.72) scale(1 -1)" gradientUnits="userSpaceOnUse"><stop offset="0" stop-color="#0086ff"/><stop offset=".49" stop-color="#0bf"/></linearGradient><radialGradient id="uuid-d10cc079-0a5a-4a90-9ced-67e42f01c3a4" cx="-596.88" cy="524.53" fx="-596.88" fy="524.53" r="1" gradientTransform="translate(3719.61 22448.26) rotate(21.63) scale(19.62 -37.16)" gradientUnits="userSpaceOnUse"><stop offset="0" stop-color="#fff"/><stop offset=".79" stop-color="#fff" stop-opacity="0"/></radialGradient><radialGradient id="uuid-6f6ccc9a-1536-4fbf-80b6-34a5a121ad49" cx="-642.56" cy="552.82" fx="-642.56" fy="552.82" r="1" gradientTransform="translate(-22794.75 -10.89) rotate(139.24) scale(26.9 -26.99)" gradientUnits="userSpaceOnUse"><stop offset="0" stop-color="#4bfde8"/><stop offset=".58" stop-color="#4bfde8" stop-opacity="0"/></radialGradient></defs><path d="M11.94,4.39c-6.6,0-11.54,5.41-11.91,11.43.23,1.3.99,3.86,2.17,3.73,1.48-.16,5.21,0,8.39-5.76,2.32-4.21,7.1-9.4,1.35-9.4Z" style="fill:url(#uuid-612b8011-401c-4f74-a793-6cfbf519339f);"/><path d="M10.41,6.64c-2.22,3.52-5.21,8.55-6.22,10.14-1.2,1.88-4.37,1.08-4.11-1.62-.03.22-.05.44-.06.66-.43,7.03,5.14,12.86,12.07,12.86,7.64,0,25.86-9.52,24.02-19.06-1.94-5.61-7.41-9.63-13.6-9.63s-10.16,3.57-12.1,6.64Z" style="fill:url(#uuid-6da966f3-18ef-4463-81d6-1b317462a2bf);"/><path d="M10.41,6.64c-2.22,3.52-5.21,8.55-6.22,10.14-1.2,1.88-4.37,1.08-4.11-1.62-.03.22-.05.44-.06.66-.43,7.03,5.14,12.86,12.07,12.86,7.64,0,25.86-9.52,24.02-19.06-1.94-5.61-7.41-9.63-13.6-9.63s-10.16,3.57-12.1,6.64Z" style="fill:url(#uuid-46cb7010-5617-4966-9c38-c51ebc4c52b3); fill-opacity:.4;"/><path d="M10.41,6.64c-2.22,3.52-5.21,8.55-6.22,10.14-1.2,1.88-4.37,1.08-4.11-1.62-.03.22-.05.44-.06.66-.43,7.03,5.14,12.86,12.07,12.86,7.64,0,25.86-9.52,24.02-19.06-1.94-5.61-7.41-9.63-13.6-9.63s-10.16,3.57-12.1,6.64Z" style="fill:url(#uuid-ec1618a8-6d85-4e96-9542-b880400593a1);"/><path d="M10.41,6.64c-2.22,3.52-5.21,8.55-6.22,10.14-1.2,1.88-4.37,1.08-4.11-1.62-.03.22-.05.44-.06.66-.43,7.03,5.14,12.86,12.07,12.86,7.64,0,25.86-9.52,24.02-19.06-1.94-5.61-7.41-9.63-13.6-9.63s-10.16,3.57-12.1,6.64Z" style="fill:url(#uuid-0e5ed232-526a-4a56-950b-bd2c01b18482); fill-opacity:.6;"/><path d="M10.41,6.64c-2.22,3.52-5.21,8.55-6.22,10.14-1.2,1.88-4.37,1.08-4.11-1.62-.03.22-.05.44-.06.66-.43,7.03,5.14,12.86,12.07,12.86,7.64,0,25.86-9.52,24.02-19.06-1.94-5.61-7.41-9.63-13.6-9.63s-10.16,3.57-12.1,6.64Z" style="fill:url(#uuid-6cb47f3c-4818-4d3b-9b9e-9f717f3a2174); fill-opacity:.9;"/><path d="M11.98,28.69s18.24.04,21.34.04c5.62,0,9.88-4.58,9.88-9.93,0-5.35-4.36-9.91-9.88-9.91s-8.71,4.14-11.11,8.65c-2.8,5.29-6.38,11.09-10.23,11.15Z" style="fill:url(#uuid-230ad4ac-2f9c-4d42-a05e-5f20f6e21c78);"/><path d="M11.98,28.69s18.24.04,21.34.04c5.62,0,9.88-4.58,9.88-9.93,0-5.35-4.36-9.91-9.88-9.91s-8.71,4.14-11.11,8.65c-2.8,5.29-6.38,11.09-10.23,11.15Z" style="fill:url(#uuid-d10cc079-0a5a-4a90-9ced-67e42f01c3a4); fill-opacity:.4;"/><path d="M11.98,28.69s18.24.04,21.34.04c5.62,0,9.88-4.58,9.88-9.93,0-5.35-4.36-9.91-9.88-9.91s-8.71,4.14-11.11,8.65c-2.8,5.29-6.38,11.09-10.23,11.15Z" style="fill:url(#uuid-6f6ccc9a-1536-4fbf-80b6-34a5a121ad49); fill-opacity:.9;"/></svg>