<svg width="50" height="46" viewBox="0 0 50 46" fill="none" xmlns="http://www.w3.org/2000/svg">
<g clip-path="url(#clip0_259_2276)">
<path d="M50.0002 24.1499C50.0029 23.7632 49.8009 23.4033 49.4676 23.2011H49.4618L49.4409 23.1896L32.1153 13.0466C32.0405 12.9967 31.9628 12.951 31.8827 12.9098C31.2138 12.5685 30.4191 12.5685 29.7502 12.9098C29.67 12.951 29.5924 12.9967 29.5176 13.0466L12.1921 23.1896L12.1712 23.2011C11.6416 23.5268 11.4793 24.2154 11.8086 24.7391C11.9056 24.8934 12.0393 25.0219 12.1979 25.1136L29.5235 35.2566C29.5985 35.3061 29.6762 35.3518 29.756 35.3934C30.425 35.7348 31.2196 35.7348 31.8886 35.3934C31.9685 35.3518 32.0461 35.3062 32.1212 35.2566L49.4467 25.1136C49.7928 24.914 50.0041 24.5461 50.0002 24.1499Z" fill="#0A2767"/>
<path d="M14.2118 17.3776H25.5816V27.6851H14.2118V17.3776ZM47.6746 6.9V2.18499C47.7019 1.00613 46.7584 0.0282481 45.5665 0H16.0619C14.8699 0.0282481 13.9264 1.00613 13.9537 2.18499V6.9L31.3955 11.5L47.6746 6.9Z" fill="#0364B8"/>
<path d="M13.9536 6.8999H25.5815V17.2499H13.9536V6.8999Z" fill="#0078D4"/>
<path d="M37.2095 6.8999H25.5815V17.2499L37.2095 27.5999H47.6746V17.2499L37.2095 6.8999Z" fill="#28A8EA"/>
<path d="M25.5815 17.25H37.2094V27.6H25.5815V17.25Z" fill="#0078D4"/>
<path d="M25.5815 27.6001H37.2094V37.9501H25.5815V27.6001Z" fill="#0364B8"/>
<path d="M14.2114 27.6851H25.5812V37.0552H14.2114V27.6851Z" fill="#14447D"/>
<path d="M37.2095 27.6001H47.6746V37.9501H37.2095V27.6001Z" fill="#0078D4"/>
<path d="M49.4674 25.0504L49.4453 25.0619L32.1198 34.6988C32.0442 34.7448 31.9675 34.7885 31.8872 34.8276C31.5929 34.9662 31.2733 35.0445 30.9477 35.0576L30.0012 34.5102C29.9212 34.4705 29.8435 34.4264 29.7686 34.378L12.2105 24.4673H12.2023L11.6279 24.1499V43.6585C11.6369 44.9601 12.7107 46.0082 14.0268 45.9999H47.6384C47.6581 45.9999 47.6756 45.9907 47.6965 45.9907C47.9745 45.9731 48.2485 45.9166 48.5104 45.8228C48.6236 45.7754 48.7329 45.7192 48.8372 45.6549C48.9151 45.6112 49.0488 45.5158 49.0488 45.5158C49.6445 45.0798 49.997 44.3914 50 43.6585V24.1499C49.9996 24.523 49.7961 24.8671 49.4674 25.0504Z" fill="url(#paint0_linear_259_2276)"/>
<path opacity="0.5" d="M49.07 24.0729V25.2689L30.9537 37.605L12.1979 24.4754C12.1979 24.4691 12.1927 24.4639 12.1863 24.4639L10.4653 23.4404V22.5779L11.1746 22.5664L12.6746 23.4174L12.7095 23.4289L12.8374 23.5094C12.8374 23.5094 30.4653 33.4569 30.5118 33.4799L31.1862 33.8709C31.2444 33.8479 31.3025 33.8249 31.3723 33.8019C31.4072 33.7789 48.8722 24.0614 48.8722 24.0614L49.07 24.0729Z" fill="#0A2767"/>
<path d="M49.4674 25.0504L49.4453 25.063L32.1197 34.7C32.0442 34.746 31.9674 34.7897 31.8872 34.8288C31.2143 35.1539 30.4275 35.1539 29.7546 34.8288C29.6749 34.7898 29.5973 34.7468 29.5221 34.7L12.1965 25.063L12.1756 25.0504C11.8411 24.871 11.6314 24.5262 11.6279 24.1499V43.6585C11.6363 44.9599 12.7097 46.0081 14.0255 45.9999C14.0255 45.9999 14.0256 45.9999 14.0256 45.9999H47.6023C48.9182 46.0082 49.9916 44.9599 50 43.6586C50 43.6586 50 43.6586 50 43.6585V24.1499C49.9996 24.523 49.7961 24.8671 49.4674 25.0504Z" fill="#1490DF"/>
<path opacity="0.1" d="M32.3721 34.5576L32.1128 34.7014C32.0377 34.7487 31.96 34.7921 31.8802 34.8313C31.5946 34.97 31.2839 35.0513 30.9663 35.0705L37.5582 42.7801L49.057 45.5206C49.3721 45.2852 49.6227 44.9756 49.7861 44.6201L32.3721 34.5576Z" fill="black"/>
<path opacity="0.05" d="M33.5465 33.9043L32.1128 34.7012C32.0377 34.7486 31.96 34.792 31.8802 34.8312C31.5946 34.9699 31.2839 35.0512 30.9663 35.0704L34.0547 43.4918L49.0605 45.517C49.6516 45.078 49.9996 44.3897 50 43.6586V43.4067L33.5465 33.9043Z" fill="black"/>
<path d="M14.0582 45.9999H47.5988C48.1149 46.0025 48.6183 45.8412 49.0349 45.5399L30 34.5126C29.92 34.4729 29.8424 34.4287 29.7674 34.3803L12.2093 24.4696H12.2012L11.6279 24.1499V43.5918C11.6266 44.9205 12.7147 45.9986 14.0582 45.9999Z" fill="#28A8EA"/>
<path opacity="0.1" d="M27.907 11.3081V35.8376C27.9049 36.6977 27.3762 37.4707 26.5698 37.7926C26.32 37.8988 26.051 37.9536 25.7791 37.9536H11.6279V10.3502H13.9535V9.2002H25.7791C26.9538 9.2046 27.9045 10.1463 27.907 11.3081Z" fill="black"/>
<path opacity="0.2" d="M26.7442 12.4581V36.9876C26.7471 37.2654 26.6876 37.5404 26.5698 37.7926C26.2469 38.5798 25.4753 39.0963 24.6163 39.1001H11.6279V10.3502H24.6163C24.9537 10.3468 25.2862 10.4301 25.5814 10.5917C26.2942 10.9469 26.7439 11.6688 26.7442 12.4581Z" fill="black"/>
<path opacity="0.2" d="M26.7442 12.4581V34.6876C26.7385 35.8489 25.7905 36.7901 24.6163 36.8002H11.6279V10.3502H24.6163C24.9537 10.3468 25.2862 10.4301 25.5814 10.5917C26.2942 10.9469 26.7439 11.6688 26.7442 12.4581Z" fill="black"/>
<path opacity="0.2" d="M25.5814 12.458V34.6875C25.5801 35.8506 24.6295 36.7944 23.4535 36.8001H11.6279V10.3501H23.4535C24.6293 10.3507 25.582 11.294 25.5814 12.4569C25.5814 12.4573 25.5814 12.4577 25.5814 12.458Z" fill="black"/>
<path d="M2.13139 10.3501H23.45C24.6271 10.3501 25.5814 11.2939 25.5814 12.458V33.5421C25.5814 34.7063 24.6271 35.6501 23.45 35.6501H2.13139C0.954243 35.6501 0 34.7063 0 33.5421V12.458C0 11.2939 0.95427 10.3501 2.13139 10.3501Z" fill="url(#paint1_linear_259_2276)"/>
<path d="M6.66162 19.1914C7.18694 18.0845 8.03485 17.1582 9.09652 16.5315C10.2722 15.8657 11.6109 15.5339 12.9651 15.5723C14.2203 15.5454 15.4588 15.8601 16.5454 16.482C17.567 17.0845 18.3898 17.9674 18.9139 19.0235C19.4848 20.1872 19.7692 21.4678 19.7442 22.761C19.7719 24.1124 19.4792 25.4515 18.8895 26.671C18.3529 27.7648 17.504 28.6791 16.4477 29.301C15.3192 29.942 14.0347 30.2649 12.7337 30.2348C11.4518 30.2654 10.186 29.9472 9.07443 29.3148C8.04394 28.7115 7.2108 27.8276 6.67443 26.7687C6.10023 25.6218 5.81237 24.3556 5.8349 23.0761C5.81098 21.7361 6.0936 20.4081 6.66162 19.1914ZM9.25697 25.4359C9.53705 26.1357 10.012 26.7426 10.6267 27.1862C11.2529 27.619 12.0026 27.8423 12.7663 27.8233C13.5795 27.8551 14.3811 27.6242 15.05 27.1655C15.6569 26.7232 16.1194 26.1147 16.3802 25.4152C16.6718 24.6339 16.8156 23.8064 16.8046 22.9737C16.8136 22.1331 16.6784 21.2971 16.4046 20.5012C16.1628 19.7827 15.7152 19.1491 15.1163 18.6773C14.4642 18.1969 13.6647 17.9532 12.8523 17.9873C12.0721 17.9674 11.3056 18.1924 10.6628 18.6302C10.0377 19.0757 9.55368 19.688 9.26743 20.3954C8.63242 22.0171 8.62912 23.8142 9.25811 25.4382L9.25697 25.4359Z" fill="white"/>
<path d="M37.2095 6.8999H47.6746V17.2499H37.2095V6.8999Z" fill="#50D9FF"/>
</g>
<defs>
<linearGradient id="paint0_linear_259_2276" x1="30.814" y1="24.1499" x2="30.814" y2="45.9999" gradientUnits="userSpaceOnUse">
<stop stop-color="#35B8F1"/>
<stop offset="1" stop-color="#28A8EA"/>
</linearGradient>
<linearGradient id="paint1_linear_259_2276" x1="4.444" y1="8.70299" x2="20.8619" y2="37.4545" gradientUnits="userSpaceOnUse">
<stop stop-color="#1784D9"/>
<stop offset="0.5" stop-color="#107AD5"/>
<stop offset="1" stop-color="#0A63C9"/>
</linearGradient>
<clipPath id="clip0_259_2276">
<rect width="50" height="46" fill="white"/>
</clipPath>
</defs>
</svg>
