<svg width="50" height="46" viewBox="0 0 50 46" fill="none" xmlns="http://www.w3.org/2000/svg">
<g clip-path="url(#clip0_259_2313)">
<path d="M38.3721 46H13.757C12.5812 46 11.6279 45.0573 11.6279 43.8943V2.10565C11.6279 0.942724 12.5812 0 13.757 0H47.871C49.0468 0 50 0.942724 50 2.10565V11.5L38.3721 46Z" fill="#CA64EA"/>
<path d="M50 23L44.186 26.45L38.3721 23V11.5H50L50 23Z" fill="#AE4BD5"/>
<path d="M50 34.5L44.186 37.95L38.3721 34.5V23H50V34.5Z" fill="#9332BF"/>
<path d="M38.3721 34.5H50V43.8438C50 45.0346 49.0238 46 47.8197 46H38.3721V34.5Z" fill="#7719AA"/>
<path opacity="0.2" d="M25.7756 9.2002H11.6279V37.9502H25.7756C26.9512 37.9464 27.9032 37.0049 27.907 35.8422V11.3081C27.9032 10.1455 26.9511 9.20398 25.7756 9.2002Z" fill="black"/>
<path opacity="0.2" d="M24.6128 10.3501H11.6279V39.1001H24.6128C25.7884 39.0963 26.7404 38.1548 26.7442 36.9921V12.4581C26.7404 11.2954 25.7884 10.3539 24.6128 10.3501Z" fill="black"/>
<path opacity="0.5" d="M24.6128 10.3501H11.6279V36.8001H24.6128C25.7884 36.7963 26.7404 35.8548 26.7442 34.6922V12.4581C26.7404 11.2954 25.7884 10.3539 24.6128 10.3501Z" fill="black"/>
<path opacity="0.5" d="M23.45 10.3501H11.6279V36.8001H23.45C24.6256 36.7963 25.5776 35.8548 25.5814 34.6922V12.4581C25.5776 11.2954 24.6256 10.3539 23.45 10.3501Z" fill="black"/>
<path d="M2.1314 10.3501H23.45C24.6271 10.3501 25.5814 11.2939 25.5814 12.4581V33.5421C25.5814 34.7063 24.6271 35.6501 23.45 35.6501H2.1314C0.954266 35.6501 0 34.7063 0 33.5421V12.4581C0 11.2939 0.954266 10.3501 2.1314 10.3501Z" fill="url(#paint0_linear_259_2313)"/>
<path d="M7.00684 16.1484H9.89638L15.5743 25.2334C15.8324 25.6405 16.0262 25.9683 16.1557 26.2167H16.1929C16.1227 25.5982 16.0947 24.9758 16.1092 24.3537V16.1484H18.5743V29.8518H15.8696L9.97891 20.515C9.77939 20.2069 9.6037 19.8844 9.45332 19.5501H9.40682C9.4662 20.23 9.49065 20.9125 9.48007 21.5948V29.8518H7.00684V16.1484Z" fill="white"/>
</g>
<defs>
<linearGradient id="paint0_linear_259_2313" x1="4.44401" y1="8.70299" x2="20.862" y2="37.4545" gradientUnits="userSpaceOnUse">
<stop stop-color="#8324B3"/>
<stop offset="0.5" stop-color="#7A1BAC"/>
<stop offset="1" stop-color="#621197"/>
</linearGradient>
<clipPath id="clip0_259_2313">
<rect width="50" height="46" fill="white"/>
</clipPath>
</defs>
</svg>
