<svg width="37" height="42" viewBox="0 0 37 42" fill="none" xmlns="http://www.w3.org/2000/svg">
<g clip-path="url(#clip0_2002_330)">
<path d="M23.1816 35.292V36.0322H12.5889V35.292H23.1816ZM11.627 8.59277C11.8867 10.2045 13.1199 11.5591 14.8096 11.8398V11.8408C14.8917 11.8545 14.9758 11.8613 15.0605 11.8613C15.4178 11.8613 15.7411 11.7383 15.999 11.5361V32.1816H12.7285C12.8258 31.8941 12.8929 31.5946 12.9229 31.2871C13.0234 30.2529 12.7273 29.2317 12.0811 28.4189V28.418C11.6797 27.9139 11.0253 27.726 10.4424 27.9004C10.9195 27.2431 11.2001 26.4315 11.2002 25.5605C11.2002 24.7806 10.6184 24.0961 9.82227 24.0137L9.66113 24.0049C8.78331 24.0049 8.12114 24.7286 8.12109 25.5605C8.12109 25.8434 7.98803 26.0791 7.79883 26.2246C7.04914 25.4301 6.61523 24.3562 6.61523 23.2139C6.61531 22.3027 6.89517 21.4257 7.39941 20.6992C7.5338 20.6554 7.67576 20.6524 7.81348 20.6904C8.00668 20.7438 8.17387 20.8714 8.28223 21.0645V21.0635C8.55212 21.5447 9.05947 21.8525 9.62207 21.8525C9.90181 21.8525 10.17 21.7758 10.4023 21.6377C11.1371 21.2007 11.3692 20.2569 10.9609 19.5293C10.4844 18.6794 9.7259 18.0467 8.81055 17.7441L8.625 17.6885L8.35059 17.623C7.97531 17.5488 7.59458 17.5331 7.21973 17.5732C6.95305 17.0563 6.80964 16.4728 6.80957 15.8672C6.80957 15.098 7.0494 14.3579 7.47266 13.75C7.84127 13.9499 8.24208 14.092 8.66504 14.1621C8.86891 14.1958 9.07637 14.2129 9.28516 14.2129C10.1069 14.2129 10.8923 13.9444 11.5469 13.457C12.1868 12.9803 12.3499 12.108 11.9717 11.4365L11.8887 11.3047L11.791 11.1797C11.2751 10.584 10.3768 10.4637 9.71973 10.9531H9.71875C9.55271 11.0769 9.35777 11.123 9.16113 11.0908C9.08847 11.0789 9.02001 11.0533 8.9541 11.0205C9.34984 9.76604 10.3832 8.83243 11.627 8.59277ZM19.4004 8.03809C24.9213 8.28723 29.3847 12.9961 29.3848 18.8066C29.3848 22.7787 27.2196 26.4692 23.8418 28.3281V28.3291L23.6992 28.4072L23.1816 28.6924V32.1807H19.4004V22.3584H22.8584C23.736 22.3584 24.3982 21.6354 24.3984 20.8037C24.3984 19.9717 23.7359 19.2481 22.8584 19.248H19.4004V8.03809ZM9.43262 28.8672C9.27405 29.3149 9.32225 29.8247 9.58984 30.2402L9.68066 30.3672C9.81571 30.5372 9.88064 30.7541 9.8584 30.9834C9.85213 31.0481 9.83797 31.1103 9.81836 31.1699C9.17601 30.7778 8.71685 30.0828 8.63281 29.2686C8.91674 29.1661 9.18453 29.0307 9.43262 28.8672ZM15.999 9.07324C15.8053 8.92197 15.5716 8.81407 15.3066 8.77051C15.0403 8.72655 14.8086 8.52895 14.708 8.25977C15.1159 8.08922 15.551 8.00078 15.999 8V9.07324Z" stroke="white" stroke-width="2"/>
</g>
<defs>
<clipPath id="clip0_2002_330">
<rect width="34" height="35" fill="white" transform="translate(1 7)"/>
</clipPath>
</defs>
</svg>
