<svg width="35" height="35" viewBox="0 0 35 35" fill="none" xmlns="http://www.w3.org/2000/svg">
<g clip-path="url(#clip0_2002_670)">
<path d="M18.348 28.3204H16.6524C15.9892 28.3204 15.4684 27.8407 15.2931 27.0686L14.8727 25.2203C14.8057 24.9255 14.9902 24.6321 15.285 24.5651C15.5797 24.4981 15.8732 24.6826 15.9402 24.9774L16.3607 26.826C16.3759 26.8929 16.4611 27.2255 16.6524 27.2255H18.348C18.5393 27.2255 18.6245 26.893 18.6396 26.8263L19.0601 24.9774C19.1049 24.7805 19.2544 24.6243 19.4491 24.5709C20.0327 24.4108 20.5952 24.1775 21.1208 23.8774C21.2964 23.7771 21.513 23.7819 21.6841 23.8897L23.2885 24.9012C23.3683 24.951 23.6465 25.1075 23.7792 24.9761L24.9774 23.7778C25.1093 23.6459 24.9522 23.3692 24.901 23.2876L23.8899 21.6839C23.7821 21.5128 23.7774 21.2962 23.8776 21.1206C24.1775 20.5952 24.4109 20.0328 24.5711 19.4489C24.6246 19.2542 24.7808 19.1048 24.9776 19.06L26.8262 18.6395C26.8931 18.6244 27.2257 18.5391 27.2257 18.3478V16.6523C27.2257 16.4658 26.9201 16.3819 26.8265 16.3606L24.9776 15.9401C24.7808 15.8953 24.6246 15.7458 24.5711 15.5512C24.4109 14.9673 24.1775 14.4048 23.8776 13.8795C23.7774 13.704 23.782 13.4875 23.8897 13.3165L24.9013 11.7101C24.9381 11.6517 25.1134 11.3563 24.9774 11.2204L23.7782 10.0231C23.6458 9.89069 23.3694 10.0479 23.2878 10.0993L21.6836 11.1086C21.5131 11.216 21.2973 11.2208 21.1219 11.1214C20.5937 10.8217 20.0308 10.5888 19.449 10.4292C19.2543 10.3758 19.1048 10.2195 19.0601 10.0226L18.6396 8.172C18.6244 8.10563 18.5388 7.77265 18.3479 7.77265H16.6523C16.4614 7.77265 16.3758 8.10563 16.3606 8.17241L15.9402 10.0226C15.8955 10.2195 15.7459 10.3758 15.5512 10.4292C14.9695 10.5888 14.4066 10.8217 13.8783 11.1214C13.7032 11.2209 13.4874 11.2161 13.3169 11.1088L11.7105 10.0992C11.6518 10.0621 11.3564 9.88693 11.2204 10.0228L10.0228 11.2204C9.88687 11.3563 10.0621 11.6517 10.0986 11.7095L11.1087 13.3169C11.2159 13.4874 11.2208 13.703 11.1214 13.8783C10.8216 14.4066 10.5887 14.9695 10.4291 15.5512C10.3757 15.7459 10.2195 15.8954 10.0226 15.9402L8.17398 16.3606C8.07965 16.382 7.77258 16.4662 7.77258 16.6523V18.3479C7.77258 18.5388 8.10679 18.6244 8.17371 18.6395L10.0226 19.0601C10.3174 19.1271 10.502 19.4205 10.435 19.7153C10.368 20.0101 10.0753 20.1948 9.77975 20.1276L7.9311 19.7072C7.15803 19.5317 6.67773 19.0108 6.67773 18.3479V16.6523C6.67773 15.9894 7.15803 15.4686 7.93138 15.293L9.46734 14.9437C9.6109 14.4918 9.79314 14.0516 10.0117 13.6287L9.17224 12.293C8.74984 11.624 8.7789 10.9159 9.24866 10.4462L10.4463 9.24866C10.9159 8.7789 11.6239 8.74984 12.2939 9.17285L13.6287 10.0117C14.0515 9.79314 14.4918 9.6109 14.9435 9.46734L15.293 7.92933C15.469 7.15714 15.9899 6.67773 16.6523 6.67773H18.3478C19.0102 6.67773 19.5311 7.15714 19.707 7.92892L20.0566 9.46741C20.5083 9.6109 20.9485 9.79308 21.3712 10.0116L22.7049 9.17244C23.3758 8.75087 24.0835 8.78033 24.552 9.24859L25.7512 10.4459C26.2213 10.9159 26.2503 11.6239 25.8272 12.294L24.987 13.6283C25.206 14.0501 25.3887 14.4905 25.5327 14.9437L27.0689 15.2931C27.8408 15.4683 28.3205 15.9892 28.3205 16.6523V18.3479C28.3205 19.0111 27.8408 19.5319 27.0687 19.7072L25.5327 20.0566C25.3887 20.5097 25.2061 20.95 24.9872 21.3718L25.8275 22.7046C26.2493 23.3759 26.22 24.0837 25.7514 24.5521L24.552 25.7515C24.0835 26.2172 23.377 26.2465 22.7071 25.8291L21.3717 24.9873C20.9498 25.2063 20.5096 25.3889 20.0566 25.5328L19.7072 27.069C19.532 27.8408 19.0111 28.3205 18.3479 28.3205L18.348 28.3204Z" fill="white"/>
<path d="M17.5111 33.2966C15.6064 33.2966 13.6994 32.9516 11.8812 32.2613C11.5985 32.154 11.4564 31.8379 11.5637 31.5553C11.6708 31.2725 11.9871 31.1306 12.2697 31.2377C15.6534 32.5222 19.3681 32.5229 22.7297 31.24C23.0124 31.1323 23.3286 31.2738 23.4363 31.5562C23.5441 31.8387 23.4025 32.1551 23.1201 32.2629C21.3146 32.9519 19.414 33.2965 17.5111 33.2965V33.2966ZM3.2491 23.4726C3.02871 23.4726 2.82097 23.3386 2.73764 23.1205C1.35644 19.5065 1.35698 15.5149 2.73928 11.881C2.84681 11.5984 3.16304 11.4565 3.4455 11.564C3.7281 11.6714 3.87001 11.9877 3.76255 12.2702C2.47603 15.6526 2.47521 19.3671 3.76036 22.7297C3.8683 23.0121 3.72687 23.3285 3.44448 23.4364C3.38015 23.461 3.31405 23.4726 3.2491 23.4726ZM31.7493 23.4726C31.6847 23.4726 31.6191 23.4611 31.5551 23.4368C31.2724 23.3296 31.1302 23.0135 31.2376 22.7308C32.5231 19.3442 32.5239 15.6288 31.2399 12.2691C31.132 11.9867 31.2734 11.6703 31.5558 11.5623C31.8385 11.4545 32.1547 11.5958 32.2626 11.8783C33.6426 15.4891 33.6422 19.4813 32.2611 23.1193C32.1781 23.338 31.97 23.4726 31.7493 23.4726ZM22.9248 3.79863C22.8601 3.79863 22.7943 3.78708 22.7303 3.76281C19.347 2.47649 15.6324 2.47581 12.2708 3.76055C11.988 3.86836 11.6719 3.72706 11.564 3.4446C11.4561 3.1622 11.5975 2.84577 11.8799 2.73783C15.493 1.35704 19.4845 1.35758 23.1193 2.7394C23.4019 2.84679 23.5439 3.16302 23.4365 3.44562C23.3534 3.66417 23.1454 3.79863 22.9248 3.79863Z" fill="white"/>
<path d="M29.234 10.9836C26.356 10.9836 24.0146 8.6422 24.0146 5.76427C24.0146 2.88634 26.3561 0.546875 29.234 0.546875C32.112 0.546875 34.4533 2.88736 34.4533 5.76427C34.4533 8.64117 32.112 10.9836 29.234 10.9836ZM29.234 1.64172C26.9597 1.64172 25.1095 3.49111 25.1095 5.76434C25.1095 8.03756 26.9597 9.8888 29.234 9.8888C31.5083 9.8888 33.3585 8.03858 33.3585 5.76434C33.3585 3.49009 31.5083 1.64172 29.234 1.64172Z" fill="white"/>
<path d="M32.3317 9.6786H31.2369V8.76006C31.2369 7.65476 30.3384 6.75549 29.2342 6.75549C28.13 6.75549 27.2316 7.65476 27.2316 8.76006V9.6786H26.1367V8.76006C26.1367 7.05101 27.5262 5.66064 29.2342 5.66064C30.9422 5.66064 32.3317 7.05101 32.3317 8.76006V9.6786Z" fill="white"/>
<path d="M29.2339 6.75545C28.0495 6.75545 27.0859 5.79186 27.0859 4.60746C27.0859 3.42307 28.0495 2.45947 29.2339 2.45947C30.4183 2.45947 31.3838 3.42307 31.3838 4.60746C31.3838 5.79186 30.4194 6.75545 29.2339 6.75545ZM29.2339 3.55432C28.6532 3.55432 28.1808 4.02675 28.1808 4.60746C28.1808 5.18817 28.6532 5.66061 29.2339 5.66061C29.8146 5.66061 30.2891 5.18817 30.2891 4.60746C30.2891 4.02675 29.8157 3.55432 29.2339 3.55432Z" fill="white"/>
<path d="M29.234 34.4537C26.356 34.4537 24.0146 32.1124 24.0146 29.2344C24.0146 26.3565 26.356 24.0151 29.234 24.0151C32.112 24.0151 34.4533 26.3565 34.4533 29.2344C34.4533 32.1124 32.112 34.4537 29.234 34.4537ZM29.234 25.11C26.9597 25.11 25.1095 26.9602 25.1095 29.2344C25.1095 31.5087 26.9597 33.3589 29.234 33.3589C31.5083 33.3589 33.3585 31.5087 33.3585 29.2344C33.3585 26.9602 31.5083 25.11 29.234 25.11Z" fill="white"/>
<path d="M32.3317 33.1483H31.2369V32.2279C31.2369 31.1237 30.3384 30.2252 29.2342 30.2252C28.13 30.2252 27.2316 31.1237 27.2316 32.2279V33.1483H26.1367V32.2279C26.1367 30.5199 27.5262 29.1304 29.2342 29.1304C30.9422 29.1304 32.3317 30.5198 32.3317 32.2279V33.1483Z" fill="white"/>
<path d="M29.2339 30.2251C28.0495 30.2251 27.0859 29.2615 27.0859 28.0771C27.0859 26.8928 28.0495 25.9272 29.2339 25.9272C30.4183 25.9272 31.3838 26.8917 31.3838 28.0771C31.3838 29.2626 30.4194 30.2251 29.2339 30.2251ZM29.2339 27.0221C28.6532 27.0221 28.1808 27.4954 28.1808 28.0772C28.1808 28.659 28.6532 29.1304 29.2339 29.1304C29.8146 29.1304 30.2891 28.6579 30.2891 28.0772C30.2891 27.4965 29.8157 27.0221 29.2339 27.0221Z" fill="white"/>
<path d="M5.76625 10.9836C2.88825 10.9836 0.546875 8.6422 0.546875 5.76427C0.546875 2.88634 2.88825 0.546875 5.76625 0.546875C8.64425 0.546875 10.9836 2.88736 10.9836 5.76427C10.9836 8.64117 8.64309 10.9836 5.76625 10.9836ZM5.76625 1.64172C3.49193 1.64172 1.64172 3.49111 1.64172 5.76434C1.64172 8.03756 3.49193 9.8888 5.76625 9.8888C8.04057 9.8888 9.8888 8.03858 9.8888 5.76434C9.8888 3.49009 8.0394 1.64172 5.76625 1.64172Z" fill="white"/>
<path d="M8.86397 9.6786H7.76913V8.76006C7.76913 7.65476 6.87068 6.75549 5.76647 6.75549C4.66227 6.75549 3.76184 7.65476 3.76184 8.76006V9.6786H2.66699V8.76006C2.66699 7.05101 4.05742 5.66064 5.76647 5.66064C7.47553 5.66064 8.86397 7.05101 8.86397 8.76006V9.6786Z" fill="white"/>
<path d="M5.76611 6.75545C4.58063 6.75545 3.61621 5.79186 3.61621 4.60746C3.61621 3.42307 4.58063 2.45947 5.76611 2.45947C6.9516 2.45947 7.9141 3.42307 7.9141 4.60746C7.9141 5.79186 6.95051 6.75545 5.76611 6.75545ZM5.76611 3.55432C5.18431 3.55432 4.71099 4.02675 4.71099 4.60746C4.71099 5.18817 5.18431 5.66061 5.76611 5.66061C6.34792 5.66061 6.81926 5.18817 6.81926 4.60746C6.81926 4.02675 6.34683 3.55432 5.76611 3.55432Z" fill="white"/>
<path d="M10.4106 26.9931C10.2705 26.9931 10.1304 26.9396 10.0236 26.8327C9.80975 26.619 9.80975 26.2724 10.0236 26.0586L13.9223 22.1599C14.1361 21.9461 14.4827 21.9461 14.6964 22.1599C14.9102 22.3736 14.9102 22.7202 14.6964 22.934L10.7977 26.8327C10.6908 26.9396 10.5508 26.9931 10.4106 26.9931ZM8.55426 25.1347C8.41412 25.1347 8.27405 25.0814 8.16721 24.9744C7.95338 24.7606 7.95338 24.414 8.16721 24.2003L12.1706 20.1969C12.3845 19.9832 12.7311 19.9832 12.9447 20.1969C13.1585 20.4107 13.1585 20.7573 12.9447 20.971L8.94131 24.9744C8.83446 25.0812 8.69433 25.1347 8.55426 25.1347Z" fill="white"/>
<path d="M4.11359 34.2647C3.62871 34.2647 3.17371 34.0766 2.83226 33.7352L1.26293 32.1678C0.555619 31.4605 0.555619 30.3099 1.26273 29.6029L6.53351 24.3341C6.8749 23.9927 7.3299 23.8047 7.81477 23.8047C8.29964 23.8047 8.75464 23.9927 9.0961 24.3342L10.6654 25.9015C11.3727 26.6089 11.3727 27.7594 10.6656 28.4665L5.39485 33.7353C5.05353 34.0766 4.59846 34.2647 4.11359 34.2647ZM7.81477 24.8995C7.62234 24.8995 7.44221 24.9737 7.30761 25.1084C7.30761 25.1084 7.30761 25.1084 7.30747 25.1084L2.03676 30.3771C1.75662 30.6573 1.75662 31.1132 2.03676 31.3934L3.60616 32.9608C3.74103 33.0958 3.92109 33.1699 4.11352 33.1699C4.30595 33.1699 4.48608 33.0958 4.62075 32.9611L9.89153 27.6923C10.1717 27.4121 10.1717 26.9562 9.89153 26.676L8.32213 25.1086C8.18726 24.9737 8.0072 24.8995 7.81477 24.8995Z" fill="white"/>
<path d="M17.4993 23.8734C13.9856 23.8734 11.127 21.014 11.127 17.4993C11.127 13.9845 13.9855 11.127 17.4993 11.127C21.013 11.127 23.8734 13.9855 23.8734 17.4993C23.8734 21.013 21.014 23.8734 17.4993 23.8734ZM17.4993 12.2218C14.5893 12.2218 12.2218 14.5893 12.2218 17.4993C12.2218 20.4093 14.5893 22.7786 17.4993 22.7786C20.4093 22.7786 22.7786 20.4102 22.7786 17.4993C22.7786 14.5883 20.4102 12.2218 17.4993 12.2218Z" fill="white"/>
<path d="M21.228 22.3802H20.1331V21.2331C20.1331 19.7816 18.9513 18.6006 17.4988 18.6006C16.0462 18.6006 14.8663 19.7815 14.8663 21.2331V22.3802H13.7715V21.2331C13.7715 19.1779 15.4436 17.5059 17.4987 17.5059C19.5539 17.5059 21.2279 19.1779 21.2279 21.2331V22.3802H21.228Z" fill="white"/>
<path d="M17.4994 18.6007C16.097 18.6007 14.9561 17.4589 14.9561 16.0555C14.9561 14.6521 16.097 13.5122 17.4994 13.5122C18.9018 13.5122 20.0445 14.6531 20.0445 16.0555C20.0445 17.4579 18.9028 18.6007 17.4994 18.6007ZM17.4994 14.607C16.7007 14.607 16.0509 15.2568 16.0509 16.0554C16.0509 16.8541 16.7007 17.5059 17.4994 17.5059C18.298 17.5059 18.9497 16.8552 18.9497 16.0554C18.9497 15.2557 18.2991 14.607 17.4994 14.607Z" fill="white"/>
</g>
<defs>
<clipPath id="clip0_2002_670">
<rect width="35" height="35" fill="white"/>
</clipPath>
</defs>
</svg>
