<svg width="31" height="31" viewBox="0 0 31 31" fill="none" xmlns="http://www.w3.org/2000/svg">
<g clip-path="url(#clip0_2002_622)">
<path d="M25.4014 23.7881H28.8767V25.5202H25.4014V23.7881Z" fill="white"/>
<path d="M20.1094 23.7881H23.5848V25.5202H20.1094V23.7881Z" fill="white"/>
<path d="M20.1094 20.1113H23.5848V21.9717H20.1094V20.1113Z" fill="white"/>
<path d="M25.4014 20.1113H28.8767V21.9717H25.4014V20.1113Z" fill="white"/>
<path d="M31 15.4521C31 14.9506 30.5934 14.5439 30.0918 14.5439H8.04002V11.2109H4.8406V14.5439H0.908203C0.406633 14.5439 0 14.9506 0 15.4521V17.3866C0 17.8882 0.406633 18.2948 0.908203 18.2948H30.0918C30.5934 18.2948 31 17.8882 31 17.3866V15.4521Z" fill="white"/>
<path d="M0 28.2446V30.061C0 30.5626 0.406633 30.9692 0.908203 30.9692H30.0918C30.5934 30.9692 31 30.5626 31 30.061V28.2446C31 27.7431 30.5934 27.3364 30.0918 27.3364H0.908203C0.406633 27.3364 0 27.7431 0 28.2446Z" fill="white"/>
<path d="M7.45801 23.7881H10.9333V25.5202H7.45801V23.7881Z" fill="white"/>
<path d="M2.16602 23.7881H5.64141V25.5202H2.16602V23.7881Z" fill="white"/>
<path d="M2.16602 20.1113H5.64141V21.9717H2.16602V20.1113Z" fill="white"/>
<path d="M7.45801 20.1113H10.9333V21.9717H7.45801V20.1113Z" fill="white"/>
<path d="M1.95508 3.32124C1.64538 3.32124 1.35699 3.47909 1.19007 3.73998C1.02314 4.00088 1.00067 4.32886 1.13049 4.61004L3.12327 8.92752C3.27173 9.24915 3.59366 9.45513 3.94785 9.45513H8.93322C9.28748 9.45513 9.60935 9.24915 9.75781 8.92752L11.7505 4.61004C11.8803 4.3288 11.8578 4.00082 11.691 3.73998C11.5241 3.47915 11.2356 3.32124 10.9259 3.32124H7.34871V1.56538V0.938965C7.34871 0.437395 6.94208 0.0307617 6.44051 0.0307617C5.93894 0.0307617 5.53231 0.437395 5.53231 0.938965V1.56538V3.32124H1.95508Z" fill="white"/>
<path d="M19.8807 8.58752L21.0796 9.26262C21.2175 9.34024 21.3711 9.37948 21.5253 9.37948C21.6479 9.37948 21.7709 9.35465 21.8865 9.30458L29.8612 5.8479C30.3214 5.64839 30.5328 5.11364 30.3333 4.65343C30.1338 4.19327 29.5992 3.98178 29.1388 4.18134L25.7379 5.65548L23.0404 4.14259C22.603 3.89726 22.0494 4.05298 21.804 4.4905C21.5586 4.92801 21.7144 5.48153 22.1519 5.72686L23.6434 6.56332L21.5779 7.45863L20.772 7.00483C20.3349 6.75876 19.7811 6.91346 19.5349 7.35055C19.2889 7.78758 19.4437 8.3414 19.8807 8.58752Z" fill="white"/>
</g>
<defs>
<clipPath id="clip0_2002_622">
<rect width="31" height="31" fill="white"/>
</clipPath>
</defs>
</svg>
