<svg width="23" height="23" viewBox="0 0 23 23" fill="none" xmlns="http://www.w3.org/2000/svg">
<path d="M10.9209 1.81152C11.7105 1.49354 12.59 1.47635 13.3916 1.7627C14.1732 2.04196 14.8266 2.59242 15.2383 3.31152C15.778 3.02465 16.3975 2.92354 17.001 3.02734C17.6251 3.1347 18.1933 3.45314 18.6104 3.92969C19.0274 4.40639 19.2685 5.01257 19.292 5.64551C19.3138 6.23617 19.1425 6.81538 18.8105 7.30176H19.7012C19.9738 7.30253 20.2351 7.41158 20.4277 7.60449C20.6204 7.79752 20.7292 8.0593 20.7295 8.33203V13.6562C20.7296 14.5477 20.3875 15.4056 19.7744 16.0527C19.1709 16.6898 18.3492 17.0732 17.4746 17.1309C17.0674 18.1856 16.3534 19.0941 15.4229 19.7373C14.4811 20.3883 13.3636 20.7373 12.2188 20.7373C11.0739 20.7373 9.9564 20.3883 9.01465 19.7373C8.08544 19.095 7.37134 18.1885 6.96387 17.1357H3.59375C3.24293 17.1357 2.90628 16.9961 2.6582 16.748C2.41014 16.5 2.27052 16.1633 2.27051 15.8125V7.1875C2.27051 6.83668 2.41014 6.50003 2.6582 6.25195C2.90628 6.00388 3.24292 5.86426 3.59375 5.86426H8.84375C8.64881 5.06653 8.73961 4.22501 9.10645 3.48828C9.48585 2.72639 10.1314 2.12953 10.9209 1.81152ZM13.542 15.8125C13.542 16.1633 13.4024 16.5 13.1543 16.748C12.9062 16.9961 12.5696 17.1357 12.2188 17.1357H8.29199C8.7363 17.9902 9.44683 18.6775 10.3184 19.0918C11.2219 19.5212 12.2442 19.6322 13.2188 19.4062C14.1932 19.1803 15.0622 18.6308 15.6846 17.8477C16.3068 17.0645 16.6455 16.094 16.6455 15.0938V8.625C16.6455 8.5946 16.6338 8.56545 16.6123 8.54395C16.5908 8.52244 16.5617 8.51074 16.5312 8.51074H13.542V15.8125ZM3.59375 7.07324C3.56333 7.07324 3.5342 7.08494 3.5127 7.10645C3.4912 7.12795 3.47949 7.1571 3.47949 7.1875V15.8125C3.47951 15.8429 3.4912 15.8721 3.5127 15.8936C3.5342 15.915 3.56335 15.9268 3.59375 15.9268H12.2188C12.2492 15.9268 12.2783 15.915 12.2998 15.8936C12.3213 15.8721 12.333 15.8429 12.333 15.8125V7.1875C12.333 7.1571 12.3213 7.12795 12.2998 7.10645C12.2783 7.08494 12.2492 7.07324 12.2188 7.07324H3.59375ZM9.34375 8.73926C9.50396 8.73926 9.65722 8.80371 9.77051 8.91699C9.88377 9.03027 9.94824 9.18356 9.94824 9.34375C9.94823 9.50394 9.88378 9.65724 9.77051 9.77051C9.65723 9.88377 9.50394 9.94824 9.34375 9.94824H8.51074V13.6562C8.51073 13.8164 8.44628 13.9697 8.33301 14.083C8.21973 14.1963 8.06644 14.2607 7.90625 14.2607C7.74606 14.2607 7.59277 14.1963 7.47949 14.083C7.36622 13.9697 7.30177 13.8164 7.30176 13.6562V9.94824H6.46875C6.30856 9.94824 6.15527 9.88377 6.04199 9.77051C5.92872 9.65724 5.86427 9.50394 5.86426 9.34375C5.86426 9.18356 5.92873 9.03027 6.04199 8.91699C6.15528 8.80371 6.30854 8.73926 6.46875 8.73926H9.34375ZM16.2891 4.2168C16.0591 4.25342 15.8405 4.34222 15.6494 4.47461C15.6798 4.6587 15.6982 4.84461 15.6982 5.03125C15.6984 5.86633 15.3973 6.67146 14.8545 7.30176H16.5312C16.7762 7.30199 17.018 7.24481 17.2363 7.13379C17.4547 7.02271 17.644 6.86122 17.7881 6.66309C17.9322 6.46492 18.027 6.23515 18.0654 5.99316C18.1038 5.7512 18.0845 5.50351 18.0088 5.27051C17.933 5.03749 17.8032 4.82556 17.6299 4.65234C17.4566 4.47915 17.2448 4.34904 17.0117 4.27344C16.7787 4.1979 16.5309 4.17835 16.2891 4.2168ZM12.9053 2.86621C12.4925 2.7353 12.0502 2.72509 11.6318 2.83691C11.2136 2.94876 10.8363 3.1778 10.5439 3.49707C10.2515 3.81648 10.056 4.21305 9.98145 4.63965C9.90941 5.05198 9.95385 5.47546 10.1074 5.86426H12.2188C12.5366 5.86463 12.8439 5.98027 13.084 6.18848C13.2982 6.3743 13.4452 6.62347 13.5068 6.89844C13.836 6.67141 14.1013 6.36262 14.2725 6C14.4573 5.6084 14.5256 5.17173 14.4707 4.74219C14.4157 4.3127 14.2393 3.90763 13.9619 3.5752C13.6845 3.2429 13.3178 2.99714 12.9053 2.86621ZM17.8545 15.0938C17.8543 15.3489 17.8359 15.6036 17.8018 15.8564C18.2764 15.7374 18.7018 15.4707 19.0117 15.0898C19.3413 14.6848 19.5205 14.1784 19.5205 13.6562V8.51074H17.8447C17.8483 8.5485 17.854 8.58608 17.8545 8.62402V15.0938Z" fill="white" stroke="white" stroke-width="0.13"/>
</svg>
