<svg width="36" height="36" viewBox="0 0 36 36" fill="none" xmlns="http://www.w3.org/2000/svg">
<g clip-path="url(#clip0_2002_640)">
<mask id="path-1-outside-1_2002_640" maskUnits="userSpaceOnUse" x="-1" y="1.61182" width="38" height="33" fill="black">
<rect fill="white" x="-1" y="1.61182" width="38" height="33"/>
<path d="M32.9766 2.61182H3.02344C2.22185 2.61273 1.45336 2.93156 0.886551 3.49837C0.319745 4.06517 0.000911877 4.83367 0 5.63525L0 26.662C0.000911877 27.4636 0.319745 28.2321 0.886551 28.7989C1.45336 29.3657 2.22185 29.6845 3.02344 29.6854H7.69261V32.2632H6.17386C6.02467 32.2632 5.8816 32.3224 5.77611 32.4279C5.67062 32.5334 5.61136 32.6765 5.61136 32.8257C5.61136 32.9748 5.67062 33.1179 5.77611 33.2234C5.8816 33.3289 6.02467 33.3882 6.17386 33.3882H29.8266C29.9757 33.3882 30.1188 33.3289 30.2243 33.2234C30.3298 33.1179 30.3891 32.9748 30.3891 32.8257C30.3891 32.6765 30.3298 32.5334 30.2243 32.4279C30.1188 32.3224 29.9757 32.2632 29.8266 32.2632H28.3078V29.6854H32.9766C33.7781 29.6845 34.5466 29.3657 35.1134 28.7989C35.6803 28.2321 35.9991 27.4636 36 26.662V5.63525C35.9991 4.83367 35.6803 4.06517 35.1134 3.49837C34.5466 2.93156 33.7781 2.61273 32.9766 2.61182ZM3.02344 3.73682H32.9766C33.4799 3.73739 33.9624 3.93759 34.3183 4.29349C34.6742 4.64939 34.8744 5.13193 34.875 5.63525V8.39706H1.125V5.63525C1.12558 5.13193 1.32578 4.64939 1.68168 4.29349C2.03758 3.93759 2.52012 3.73739 3.02344 3.73682ZM12.3628 29.6854H13.0078V32.2632H12.3632L12.3628 29.6854ZM17.6777 29.6854H18.3223V32.2632H17.6777V29.6854ZM22.9925 29.6854H23.6372V32.2632H22.9925V29.6854ZM21.8675 32.2632H19.4473V22.5914H21.8675V32.2632ZM16.5527 32.2632H14.1328V25.5549H16.553L16.5527 32.2632ZM11.2378 32.2632H8.81761V28.5183H11.2378V32.2632ZM24.7622 32.2632V19.628H27.1824V32.2632H24.7622ZM32.9766 28.5604H28.3074V19.0657C28.3074 18.9165 28.2481 18.7735 28.1426 18.668C28.0371 18.5625 27.8941 18.5032 27.7449 18.5032H24.1997C24.0505 18.5032 23.9074 18.5625 23.8019 18.668C23.6964 18.7735 23.6372 18.9165 23.6372 19.0657V28.5604H22.9925V22.0289C22.9925 21.8797 22.9333 21.7366 22.8278 21.6311C22.7223 21.5257 22.5792 21.4664 22.43 21.4664H18.8848C18.7356 21.4664 18.5926 21.5257 18.4871 21.6311C18.3816 21.7366 18.3223 21.8797 18.3223 22.0289V28.5602H17.6777V24.9924C17.6777 24.8432 17.6184 24.7002 17.5129 24.5947C17.4074 24.4892 17.2644 24.4299 17.1152 24.4299H13.5703C13.4211 24.4299 13.2781 24.4892 13.1726 24.5947C13.0671 24.7002 13.0078 24.8432 13.0078 24.9924V28.5604H12.3632V27.9557C12.3632 27.8066 12.3039 27.6635 12.1984 27.558C12.0929 27.4525 11.9499 27.3932 11.8007 27.3932H8.25511C8.10592 27.3932 7.96285 27.4525 7.85736 27.558C7.75187 27.6635 7.69261 27.8066 7.69261 27.9557V28.5604H3.02344C2.52011 28.5599 2.03756 28.3597 1.68166 28.0038C1.32575 27.6479 1.12556 27.1653 1.125 26.662V9.52206H34.875V26.662C34.8744 27.1653 34.6742 27.6479 34.3183 28.0038C33.9624 28.3597 33.4799 28.5599 32.9766 28.5604ZM3.9638 6.06697C3.9638 5.91779 4.02306 5.77471 4.12855 5.66922C4.23404 5.56374 4.37711 5.50447 4.5263 5.50447C4.63755 5.50447 4.7463 5.53746 4.83881 5.59927C4.93131 5.66108 5.00341 5.74893 5.04598 5.85171C5.08855 5.9545 5.09969 6.0676 5.07799 6.17671C5.05628 6.28583 5.00271 6.38605 4.92404 6.46472C4.84538 6.54339 4.74515 6.59696 4.63603 6.61866C4.52692 6.64037 4.41382 6.62923 4.31104 6.58665C4.20825 6.54408 4.1204 6.47198 4.0586 6.37948C3.99679 6.28698 3.9638 6.17822 3.9638 6.06697ZM5.68498 6.06697C5.68498 5.91779 5.74424 5.77471 5.84973 5.66922C5.95522 5.56374 6.09829 5.50447 6.24748 5.50447C6.35873 5.50447 6.46748 5.53746 6.55998 5.59927C6.65249 5.66108 6.72458 5.74893 6.76716 5.85171C6.80973 5.9545 6.82087 6.0676 6.79917 6.17671C6.77746 6.28583 6.72389 6.38605 6.64522 6.46472C6.56656 6.54339 6.46633 6.59696 6.35721 6.61866C6.2481 6.64037 6.135 6.62923 6.03222 6.58665C5.92943 6.54408 5.84158 6.47198 5.77977 6.37948C5.71797 6.28698 5.68498 6.17822 5.68498 6.06697ZM7.40616 6.06697C7.40616 5.91779 7.46542 5.77471 7.57091 5.66922C7.6764 5.56374 7.81947 5.50447 7.96866 5.50447C8.07991 5.50447 8.18866 5.53746 8.28117 5.59927C8.37367 5.66108 8.44576 5.74893 8.48834 5.85171C8.53091 5.9545 8.54205 6.0676 8.52035 6.17671C8.49864 6.28583 8.44507 6.38605 8.3664 6.46472C8.28774 6.54339 8.18751 6.59696 8.07839 6.61866C7.96928 6.64037 7.85618 6.62923 7.7534 6.58665C7.65061 6.54408 7.56276 6.47198 7.50095 6.37948C7.43915 6.28698 7.40616 6.17822 7.40616 6.06697ZM9.12734 6.06697C9.12734 5.91779 9.1866 5.77471 9.29209 5.66922C9.39758 5.56374 9.54065 5.50447 9.68984 5.50447C9.80109 5.50447 9.90984 5.53746 10.0023 5.59927C10.0948 5.66108 10.1669 5.74893 10.2095 5.85171C10.2521 5.9545 10.2632 6.0676 10.2415 6.17671C10.2198 6.28583 10.1663 6.38605 10.0876 6.46472C10.0089 6.54339 9.90869 6.59696 9.79957 6.61866C9.69046 6.64037 9.57736 6.62923 9.47458 6.58665C9.37179 6.54408 9.28394 6.47198 9.22213 6.37948C9.16033 6.28698 9.12734 6.17822 9.12734 6.06697ZM10.8485 6.06697C10.8485 5.91779 10.9078 5.77471 11.0133 5.66922C11.1188 5.56374 11.2618 5.50447 11.411 5.50447C11.5223 5.50447 11.631 5.53746 11.7235 5.59927C11.816 5.66108 11.8881 5.74893 11.9307 5.85171C11.9733 5.9545 11.9844 6.0676 11.9627 6.17671C11.941 6.28583 11.8874 6.38605 11.8088 6.46472C11.7301 6.54339 11.6299 6.59696 11.5208 6.61866C11.4116 6.64037 11.2985 6.62923 11.1958 6.58665C11.093 6.54408 11.0051 6.47198 10.9433 6.37948C10.8815 6.28698 10.8485 6.17822 10.8485 6.06697ZM22.4386 6.06697C22.4386 5.91779 22.4979 5.77471 22.6034 5.66922C22.7089 5.56374 22.8519 5.50447 23.0011 5.50447H31.4738C31.623 5.50447 31.766 5.56374 31.8715 5.66922C31.977 5.77471 32.0363 5.91779 32.0363 6.06697C32.0363 6.21616 31.977 6.35923 31.8715 6.46472C31.766 6.57021 31.623 6.62947 31.4738 6.62947H23.0011C22.8519 6.62947 22.7089 6.57021 22.6034 6.46472C22.4979 6.35923 22.4386 6.21616 22.4386 6.06697ZM26.6351 10.0013C26.5664 9.94926 26.4868 9.91369 26.4022 9.89734C26.3176 9.88099 26.2304 9.8843 26.1473 9.90702L20.6375 11.4108C20.536 11.4384 20.4444 11.4939 20.3729 11.571C20.3014 11.648 20.2529 11.7436 20.233 11.8468C20.213 11.9501 20.2224 12.0568 20.26 12.155C20.2977 12.2531 20.3621 12.3388 20.446 12.4022L22.1385 13.6843C19.0241 18.8544 14.3894 22.2435 9.35831 23.01C9.2182 23.0314 9.09135 23.1049 9.00312 23.2159C8.91489 23.3268 8.8718 23.467 8.88247 23.6083C8.89313 23.7496 8.95676 23.8818 9.06063 23.9782C9.16449 24.0746 9.30095 24.1283 9.44269 24.1285H9.4578C12.3661 24.0517 15.4089 23.122 18.2573 21.4399C20.7732 19.9466 22.9902 17.9995 24.7958 15.6976L25.9999 16.6098C26.0836 16.6732 26.1835 16.7119 26.2881 16.7215C26.3927 16.7311 26.4979 16.7112 26.5918 16.6641C26.6857 16.617 26.7645 16.5445 26.8193 16.4549C26.8742 16.3653 26.9028 16.2621 26.902 16.157L26.8578 10.4459C26.8573 10.3597 26.8369 10.2747 26.7982 10.1976C26.7596 10.1206 26.7038 10.0534 26.6351 10.0013ZM25.0286 14.462C24.9694 14.4172 24.9019 14.3845 24.83 14.3659C24.7581 14.3472 24.6832 14.343 24.6097 14.3535C24.5362 14.3639 24.4654 14.3889 24.4016 14.4268C24.3378 14.4647 24.282 14.5149 24.2377 14.5745C22.4577 16.9752 20.2145 18.9948 17.6408 20.5139C19.8686 18.7698 21.8471 16.4559 23.3648 13.8184C23.4332 13.6998 23.4559 13.5603 23.4287 13.4261C23.4015 13.2919 23.3263 13.1722 23.2172 13.0895L22.0359 12.1952L25.7383 11.1847L25.768 15.0223L25.0286 14.462Z"/>
</mask>
<path d="M32.9766 2.61182H3.02344C2.22185 2.61273 1.45336 2.93156 0.886551 3.49837C0.319745 4.06517 0.000911877 4.83367 0 5.63525L0 26.662C0.000911877 27.4636 0.319745 28.2321 0.886551 28.7989C1.45336 29.3657 2.22185 29.6845 3.02344 29.6854H7.69261V32.2632H6.17386C6.02467 32.2632 5.8816 32.3224 5.77611 32.4279C5.67062 32.5334 5.61136 32.6765 5.61136 32.8257C5.61136 32.9748 5.67062 33.1179 5.77611 33.2234C5.8816 33.3289 6.02467 33.3882 6.17386 33.3882H29.8266C29.9757 33.3882 30.1188 33.3289 30.2243 33.2234C30.3298 33.1179 30.3891 32.9748 30.3891 32.8257C30.3891 32.6765 30.3298 32.5334 30.2243 32.4279C30.1188 32.3224 29.9757 32.2632 29.8266 32.2632H28.3078V29.6854H32.9766C33.7781 29.6845 34.5466 29.3657 35.1134 28.7989C35.6803 28.2321 35.9991 27.4636 36 26.662V5.63525C35.9991 4.83367 35.6803 4.06517 35.1134 3.49837C34.5466 2.93156 33.7781 2.61273 32.9766 2.61182ZM3.02344 3.73682H32.9766C33.4799 3.73739 33.9624 3.93759 34.3183 4.29349C34.6742 4.64939 34.8744 5.13193 34.875 5.63525V8.39706H1.125V5.63525C1.12558 5.13193 1.32578 4.64939 1.68168 4.29349C2.03758 3.93759 2.52012 3.73739 3.02344 3.73682ZM12.3628 29.6854H13.0078V32.2632H12.3632L12.3628 29.6854ZM17.6777 29.6854H18.3223V32.2632H17.6777V29.6854ZM22.9925 29.6854H23.6372V32.2632H22.9925V29.6854ZM21.8675 32.2632H19.4473V22.5914H21.8675V32.2632ZM16.5527 32.2632H14.1328V25.5549H16.553L16.5527 32.2632ZM11.2378 32.2632H8.81761V28.5183H11.2378V32.2632ZM24.7622 32.2632V19.628H27.1824V32.2632H24.7622ZM32.9766 28.5604H28.3074V19.0657C28.3074 18.9165 28.2481 18.7735 28.1426 18.668C28.0371 18.5625 27.8941 18.5032 27.7449 18.5032H24.1997C24.0505 18.5032 23.9074 18.5625 23.8019 18.668C23.6964 18.7735 23.6372 18.9165 23.6372 19.0657V28.5604H22.9925V22.0289C22.9925 21.8797 22.9333 21.7366 22.8278 21.6311C22.7223 21.5257 22.5792 21.4664 22.43 21.4664H18.8848C18.7356 21.4664 18.5926 21.5257 18.4871 21.6311C18.3816 21.7366 18.3223 21.8797 18.3223 22.0289V28.5602H17.6777V24.9924C17.6777 24.8432 17.6184 24.7002 17.5129 24.5947C17.4074 24.4892 17.2644 24.4299 17.1152 24.4299H13.5703C13.4211 24.4299 13.2781 24.4892 13.1726 24.5947C13.0671 24.7002 13.0078 24.8432 13.0078 24.9924V28.5604H12.3632V27.9557C12.3632 27.8066 12.3039 27.6635 12.1984 27.558C12.0929 27.4525 11.9499 27.3932 11.8007 27.3932H8.25511C8.10592 27.3932 7.96285 27.4525 7.85736 27.558C7.75187 27.6635 7.69261 27.8066 7.69261 27.9557V28.5604H3.02344C2.52011 28.5599 2.03756 28.3597 1.68166 28.0038C1.32575 27.6479 1.12556 27.1653 1.125 26.662V9.52206H34.875V26.662C34.8744 27.1653 34.6742 27.6479 34.3183 28.0038C33.9624 28.3597 33.4799 28.5599 32.9766 28.5604ZM3.9638 6.06697C3.9638 5.91779 4.02306 5.77471 4.12855 5.66922C4.23404 5.56374 4.37711 5.50447 4.5263 5.50447C4.63755 5.50447 4.7463 5.53746 4.83881 5.59927C4.93131 5.66108 5.00341 5.74893 5.04598 5.85171C5.08855 5.9545 5.09969 6.0676 5.07799 6.17671C5.05628 6.28583 5.00271 6.38605 4.92404 6.46472C4.84538 6.54339 4.74515 6.59696 4.63603 6.61866C4.52692 6.64037 4.41382 6.62923 4.31104 6.58665C4.20825 6.54408 4.1204 6.47198 4.0586 6.37948C3.99679 6.28698 3.9638 6.17822 3.9638 6.06697ZM5.68498 6.06697C5.68498 5.91779 5.74424 5.77471 5.84973 5.66922C5.95522 5.56374 6.09829 5.50447 6.24748 5.50447C6.35873 5.50447 6.46748 5.53746 6.55998 5.59927C6.65249 5.66108 6.72458 5.74893 6.76716 5.85171C6.80973 5.9545 6.82087 6.0676 6.79917 6.17671C6.77746 6.28583 6.72389 6.38605 6.64522 6.46472C6.56656 6.54339 6.46633 6.59696 6.35721 6.61866C6.2481 6.64037 6.135 6.62923 6.03222 6.58665C5.92943 6.54408 5.84158 6.47198 5.77977 6.37948C5.71797 6.28698 5.68498 6.17822 5.68498 6.06697ZM7.40616 6.06697C7.40616 5.91779 7.46542 5.77471 7.57091 5.66922C7.6764 5.56374 7.81947 5.50447 7.96866 5.50447C8.07991 5.50447 8.18866 5.53746 8.28117 5.59927C8.37367 5.66108 8.44576 5.74893 8.48834 5.85171C8.53091 5.9545 8.54205 6.0676 8.52035 6.17671C8.49864 6.28583 8.44507 6.38605 8.3664 6.46472C8.28774 6.54339 8.18751 6.59696 8.07839 6.61866C7.96928 6.64037 7.85618 6.62923 7.7534 6.58665C7.65061 6.54408 7.56276 6.47198 7.50095 6.37948C7.43915 6.28698 7.40616 6.17822 7.40616 6.06697ZM9.12734 6.06697C9.12734 5.91779 9.1866 5.77471 9.29209 5.66922C9.39758 5.56374 9.54065 5.50447 9.68984 5.50447C9.80109 5.50447 9.90984 5.53746 10.0023 5.59927C10.0948 5.66108 10.1669 5.74893 10.2095 5.85171C10.2521 5.9545 10.2632 6.0676 10.2415 6.17671C10.2198 6.28583 10.1663 6.38605 10.0876 6.46472C10.0089 6.54339 9.90869 6.59696 9.79957 6.61866C9.69046 6.64037 9.57736 6.62923 9.47458 6.58665C9.37179 6.54408 9.28394 6.47198 9.22213 6.37948C9.16033 6.28698 9.12734 6.17822 9.12734 6.06697ZM10.8485 6.06697C10.8485 5.91779 10.9078 5.77471 11.0133 5.66922C11.1188 5.56374 11.2618 5.50447 11.411 5.50447C11.5223 5.50447 11.631 5.53746 11.7235 5.59927C11.816 5.66108 11.8881 5.74893 11.9307 5.85171C11.9733 5.9545 11.9844 6.0676 11.9627 6.17671C11.941 6.28583 11.8874 6.38605 11.8088 6.46472C11.7301 6.54339 11.6299 6.59696 11.5208 6.61866C11.4116 6.64037 11.2985 6.62923 11.1958 6.58665C11.093 6.54408 11.0051 6.47198 10.9433 6.37948C10.8815 6.28698 10.8485 6.17822 10.8485 6.06697ZM22.4386 6.06697C22.4386 5.91779 22.4979 5.77471 22.6034 5.66922C22.7089 5.56374 22.8519 5.50447 23.0011 5.50447H31.4738C31.623 5.50447 31.766 5.56374 31.8715 5.66922C31.977 5.77471 32.0363 5.91779 32.0363 6.06697C32.0363 6.21616 31.977 6.35923 31.8715 6.46472C31.766 6.57021 31.623 6.62947 31.4738 6.62947H23.0011C22.8519 6.62947 22.7089 6.57021 22.6034 6.46472C22.4979 6.35923 22.4386 6.21616 22.4386 6.06697ZM26.6351 10.0013C26.5664 9.94926 26.4868 9.91369 26.4022 9.89734C26.3176 9.88099 26.2304 9.8843 26.1473 9.90702L20.6375 11.4108C20.536 11.4384 20.4444 11.4939 20.3729 11.571C20.3014 11.648 20.2529 11.7436 20.233 11.8468C20.213 11.9501 20.2224 12.0568 20.26 12.155C20.2977 12.2531 20.3621 12.3388 20.446 12.4022L22.1385 13.6843C19.0241 18.8544 14.3894 22.2435 9.35831 23.01C9.2182 23.0314 9.09135 23.1049 9.00312 23.2159C8.91489 23.3268 8.8718 23.467 8.88247 23.6083C8.89313 23.7496 8.95676 23.8818 9.06063 23.9782C9.16449 24.0746 9.30095 24.1283 9.44269 24.1285H9.4578C12.3661 24.0517 15.4089 23.122 18.2573 21.4399C20.7732 19.9466 22.9902 17.9995 24.7958 15.6976L25.9999 16.6098C26.0836 16.6732 26.1835 16.7119 26.2881 16.7215C26.3927 16.7311 26.4979 16.7112 26.5918 16.6641C26.6857 16.617 26.7645 16.5445 26.8193 16.4549C26.8742 16.3653 26.9028 16.2621 26.902 16.157L26.8578 10.4459C26.8573 10.3597 26.8369 10.2747 26.7982 10.1976C26.7596 10.1206 26.7038 10.0534 26.6351 10.0013ZM25.0286 14.462C24.9694 14.4172 24.9019 14.3845 24.83 14.3659C24.7581 14.3472 24.6832 14.343 24.6097 14.3535C24.5362 14.3639 24.4654 14.3889 24.4016 14.4268C24.3378 14.4647 24.282 14.5149 24.2377 14.5745C22.4577 16.9752 20.2145 18.9948 17.6408 20.5139C19.8686 18.7698 21.8471 16.4559 23.3648 13.8184C23.4332 13.6998 23.4559 13.5603 23.4287 13.4261C23.4015 13.2919 23.3263 13.1722 23.2172 13.0895L22.0359 12.1952L25.7383 11.1847L25.768 15.0223L25.0286 14.462Z" fill="white"/>
<path d="M32.9766 2.61182H3.02344C2.22185 2.61273 1.45336 2.93156 0.886551 3.49837C0.319745 4.06517 0.000911877 4.83367 0 5.63525L0 26.662C0.000911877 27.4636 0.319745 28.2321 0.886551 28.7989C1.45336 29.3657 2.22185 29.6845 3.02344 29.6854H7.69261V32.2632H6.17386C6.02467 32.2632 5.8816 32.3224 5.77611 32.4279C5.67062 32.5334 5.61136 32.6765 5.61136 32.8257C5.61136 32.9748 5.67062 33.1179 5.77611 33.2234C5.8816 33.3289 6.02467 33.3882 6.17386 33.3882H29.8266C29.9757 33.3882 30.1188 33.3289 30.2243 33.2234C30.3298 33.1179 30.3891 32.9748 30.3891 32.8257C30.3891 32.6765 30.3298 32.5334 30.2243 32.4279C30.1188 32.3224 29.9757 32.2632 29.8266 32.2632H28.3078V29.6854H32.9766C33.7781 29.6845 34.5466 29.3657 35.1134 28.7989C35.6803 28.2321 35.9991 27.4636 36 26.662V5.63525C35.9991 4.83367 35.6803 4.06517 35.1134 3.49837C34.5466 2.93156 33.7781 2.61273 32.9766 2.61182ZM3.02344 3.73682H32.9766C33.4799 3.73739 33.9624 3.93759 34.3183 4.29349C34.6742 4.64939 34.8744 5.13193 34.875 5.63525V8.39706H1.125V5.63525C1.12558 5.13193 1.32578 4.64939 1.68168 4.29349C2.03758 3.93759 2.52012 3.73739 3.02344 3.73682ZM12.3628 29.6854H13.0078V32.2632H12.3632L12.3628 29.6854ZM17.6777 29.6854H18.3223V32.2632H17.6777V29.6854ZM22.9925 29.6854H23.6372V32.2632H22.9925V29.6854ZM21.8675 32.2632H19.4473V22.5914H21.8675V32.2632ZM16.5527 32.2632H14.1328V25.5549H16.553L16.5527 32.2632ZM11.2378 32.2632H8.81761V28.5183H11.2378V32.2632ZM24.7622 32.2632V19.628H27.1824V32.2632H24.7622ZM32.9766 28.5604H28.3074V19.0657C28.3074 18.9165 28.2481 18.7735 28.1426 18.668C28.0371 18.5625 27.8941 18.5032 27.7449 18.5032H24.1997C24.0505 18.5032 23.9074 18.5625 23.8019 18.668C23.6964 18.7735 23.6372 18.9165 23.6372 19.0657V28.5604H22.9925V22.0289C22.9925 21.8797 22.9333 21.7366 22.8278 21.6311C22.7223 21.5257 22.5792 21.4664 22.43 21.4664H18.8848C18.7356 21.4664 18.5926 21.5257 18.4871 21.6311C18.3816 21.7366 18.3223 21.8797 18.3223 22.0289V28.5602H17.6777V24.9924C17.6777 24.8432 17.6184 24.7002 17.5129 24.5947C17.4074 24.4892 17.2644 24.4299 17.1152 24.4299H13.5703C13.4211 24.4299 13.2781 24.4892 13.1726 24.5947C13.0671 24.7002 13.0078 24.8432 13.0078 24.9924V28.5604H12.3632V27.9557C12.3632 27.8066 12.3039 27.6635 12.1984 27.558C12.0929 27.4525 11.9499 27.3932 11.8007 27.3932H8.25511C8.10592 27.3932 7.96285 27.4525 7.85736 27.558C7.75187 27.6635 7.69261 27.8066 7.69261 27.9557V28.5604H3.02344C2.52011 28.5599 2.03756 28.3597 1.68166 28.0038C1.32575 27.6479 1.12556 27.1653 1.125 26.662V9.52206H34.875V26.662C34.8744 27.1653 34.6742 27.6479 34.3183 28.0038C33.9624 28.3597 33.4799 28.5599 32.9766 28.5604ZM3.9638 6.06697C3.9638 5.91779 4.02306 5.77471 4.12855 5.66922C4.23404 5.56374 4.37711 5.50447 4.5263 5.50447C4.63755 5.50447 4.7463 5.53746 4.83881 5.59927C4.93131 5.66108 5.00341 5.74893 5.04598 5.85171C5.08855 5.9545 5.09969 6.0676 5.07799 6.17671C5.05628 6.28583 5.00271 6.38605 4.92404 6.46472C4.84538 6.54339 4.74515 6.59696 4.63603 6.61866C4.52692 6.64037 4.41382 6.62923 4.31104 6.58665C4.20825 6.54408 4.1204 6.47198 4.0586 6.37948C3.99679 6.28698 3.9638 6.17822 3.9638 6.06697ZM5.68498 6.06697C5.68498 5.91779 5.74424 5.77471 5.84973 5.66922C5.95522 5.56374 6.09829 5.50447 6.24748 5.50447C6.35873 5.50447 6.46748 5.53746 6.55998 5.59927C6.65249 5.66108 6.72458 5.74893 6.76716 5.85171C6.80973 5.9545 6.82087 6.0676 6.79917 6.17671C6.77746 6.28583 6.72389 6.38605 6.64522 6.46472C6.56656 6.54339 6.46633 6.59696 6.35721 6.61866C6.2481 6.64037 6.135 6.62923 6.03222 6.58665C5.92943 6.54408 5.84158 6.47198 5.77977 6.37948C5.71797 6.28698 5.68498 6.17822 5.68498 6.06697ZM7.40616 6.06697C7.40616 5.91779 7.46542 5.77471 7.57091 5.66922C7.6764 5.56374 7.81947 5.50447 7.96866 5.50447C8.07991 5.50447 8.18866 5.53746 8.28117 5.59927C8.37367 5.66108 8.44576 5.74893 8.48834 5.85171C8.53091 5.9545 8.54205 6.0676 8.52035 6.17671C8.49864 6.28583 8.44507 6.38605 8.3664 6.46472C8.28774 6.54339 8.18751 6.59696 8.07839 6.61866C7.96928 6.64037 7.85618 6.62923 7.7534 6.58665C7.65061 6.54408 7.56276 6.47198 7.50095 6.37948C7.43915 6.28698 7.40616 6.17822 7.40616 6.06697ZM9.12734 6.06697C9.12734 5.91779 9.1866 5.77471 9.29209 5.66922C9.39758 5.56374 9.54065 5.50447 9.68984 5.50447C9.80109 5.50447 9.90984 5.53746 10.0023 5.59927C10.0948 5.66108 10.1669 5.74893 10.2095 5.85171C10.2521 5.9545 10.2632 6.0676 10.2415 6.17671C10.2198 6.28583 10.1663 6.38605 10.0876 6.46472C10.0089 6.54339 9.90869 6.59696 9.79957 6.61866C9.69046 6.64037 9.57736 6.62923 9.47458 6.58665C9.37179 6.54408 9.28394 6.47198 9.22213 6.37948C9.16033 6.28698 9.12734 6.17822 9.12734 6.06697ZM10.8485 6.06697C10.8485 5.91779 10.9078 5.77471 11.0133 5.66922C11.1188 5.56374 11.2618 5.50447 11.411 5.50447C11.5223 5.50447 11.631 5.53746 11.7235 5.59927C11.816 5.66108 11.8881 5.74893 11.9307 5.85171C11.9733 5.9545 11.9844 6.0676 11.9627 6.17671C11.941 6.28583 11.8874 6.38605 11.8088 6.46472C11.7301 6.54339 11.6299 6.59696 11.5208 6.61866C11.4116 6.64037 11.2985 6.62923 11.1958 6.58665C11.093 6.54408 11.0051 6.47198 10.9433 6.37948C10.8815 6.28698 10.8485 6.17822 10.8485 6.06697ZM22.4386 6.06697C22.4386 5.91779 22.4979 5.77471 22.6034 5.66922C22.7089 5.56374 22.8519 5.50447 23.0011 5.50447H31.4738C31.623 5.50447 31.766 5.56374 31.8715 5.66922C31.977 5.77471 32.0363 5.91779 32.0363 6.06697C32.0363 6.21616 31.977 6.35923 31.8715 6.46472C31.766 6.57021 31.623 6.62947 31.4738 6.62947H23.0011C22.8519 6.62947 22.7089 6.57021 22.6034 6.46472C22.4979 6.35923 22.4386 6.21616 22.4386 6.06697ZM26.6351 10.0013C26.5664 9.94926 26.4868 9.91369 26.4022 9.89734C26.3176 9.88099 26.2304 9.8843 26.1473 9.90702L20.6375 11.4108C20.536 11.4384 20.4444 11.4939 20.3729 11.571C20.3014 11.648 20.2529 11.7436 20.233 11.8468C20.213 11.9501 20.2224 12.0568 20.26 12.155C20.2977 12.2531 20.3621 12.3388 20.446 12.4022L22.1385 13.6843C19.0241 18.8544 14.3894 22.2435 9.35831 23.01C9.2182 23.0314 9.09135 23.1049 9.00312 23.2159C8.91489 23.3268 8.8718 23.467 8.88247 23.6083C8.89313 23.7496 8.95676 23.8818 9.06063 23.9782C9.16449 24.0746 9.30095 24.1283 9.44269 24.1285H9.4578C12.3661 24.0517 15.4089 23.122 18.2573 21.4399C20.7732 19.9466 22.9902 17.9995 24.7958 15.6976L25.9999 16.6098C26.0836 16.6732 26.1835 16.7119 26.2881 16.7215C26.3927 16.7311 26.4979 16.7112 26.5918 16.6641C26.6857 16.617 26.7645 16.5445 26.8193 16.4549C26.8742 16.3653 26.9028 16.2621 26.902 16.157L26.8578 10.4459C26.8573 10.3597 26.8369 10.2747 26.7982 10.1976C26.7596 10.1206 26.7038 10.0534 26.6351 10.0013ZM25.0286 14.462C24.9694 14.4172 24.9019 14.3845 24.83 14.3659C24.7581 14.3472 24.6832 14.343 24.6097 14.3535C24.5362 14.3639 24.4654 14.3889 24.4016 14.4268C24.3378 14.4647 24.282 14.5149 24.2377 14.5745C22.4577 16.9752 20.2145 18.9948 17.6408 20.5139C19.8686 18.7698 21.8471 16.4559 23.3648 13.8184C23.4332 13.6998 23.4559 13.5603 23.4287 13.4261C23.4015 13.2919 23.3263 13.1722 23.2172 13.0895L22.0359 12.1952L25.7383 11.1847L25.768 15.0223L25.0286 14.462Z" stroke="white" stroke-width="0.6" mask="url(#path-1-outside-1_2002_640)"/>
</g>
<defs>
<clipPath id="clip0_2002_640">
<rect width="36" height="36" fill="white"/>
</clipPath>
</defs>
</svg>
