<svg width="35" height="35" viewBox="0 0 35 35" fill="none" xmlns="http://www.w3.org/2000/svg">
<g clip-path="url(#clip0_2002_466)">
<path d="M13.3214 8.08973H14.2069L15.1558 12.9275C15.1772 13.0364 15.2357 13.1345 15.3214 13.2051C15.407 13.2756 15.5146 13.3141 15.6255 13.3141H20.3131C20.5542 13.3159 20.7899 13.2433 20.9883 13.1063C21.1867 12.9693 21.338 12.7745 21.4218 12.5485L22.7647 8.98483C22.792 8.9124 22.8014 8.83442 22.792 8.75758C22.7825 8.68074 22.7546 8.60734 22.7105 8.54368C22.6665 8.48001 22.6077 8.42798 22.5391 8.39205C22.4705 8.35612 22.3942 8.33737 22.3168 8.3374H15.231L15.1273 7.8085C15.0952 7.62205 14.9991 7.45261 14.8557 7.32927C14.7122 7.20593 14.5303 7.1364 14.3411 7.13263C14.3339 7.13263 14.3266 7.13209 14.3194 7.13209H13.3213C13.1944 7.13209 13.0727 7.1825 12.983 7.27224C12.8932 7.36198 12.8428 7.48369 12.8428 7.6106C12.8428 7.73751 12.8932 7.85922 12.983 7.94896C13.0727 8.0387 13.1944 8.08912 13.3213 8.08912L13.3214 8.08973ZM21.625 9.29498L20.5257 12.2119C20.5105 12.2557 20.4816 12.2934 20.4433 12.3195C20.405 12.3456 20.3594 12.3586 20.3131 12.3567H16.0194L15.4188 9.29498H21.625ZM18.6582 14.9303C18.658 15.1678 18.7283 15.4 18.8601 15.5976C18.9919 15.7952 19.1794 15.9492 19.3988 16.0402C19.6183 16.1312 19.8597 16.155 20.0927 16.1087C20.3257 16.0624 20.5397 15.948 20.7076 15.7801C20.8756 15.6121 20.9899 15.3981 21.0362 15.1651C21.0825 14.9322 21.0586 14.6907 20.9676 14.4713C20.8766 14.2519 20.7226 14.0644 20.525 13.9326C20.3274 13.8007 20.0952 13.7305 19.8577 13.7307C19.5397 13.7313 19.235 13.8579 19.0102 14.0827C18.7854 14.3076 18.6588 14.6123 18.6582 14.9303H18.6582ZM20.1018 14.9303C20.1024 14.9625 20.0965 14.9946 20.0845 15.0246C20.0725 15.0546 20.0547 15.0818 20.0321 15.1049C20.0094 15.1279 19.9825 15.1462 19.9527 15.1586C19.9229 15.1711 19.8909 15.1776 19.8587 15.1776C19.8264 15.1776 19.7944 15.1711 19.7646 15.1586C19.7349 15.1462 19.7079 15.1279 19.6852 15.1049C19.6626 15.0818 19.6448 15.0546 19.6328 15.0246C19.6208 14.9946 19.6149 14.9625 19.6155 14.9303C19.6151 14.8983 19.6211 14.8667 19.6332 14.8371C19.6452 14.8076 19.663 14.7807 19.6856 14.7582C19.7082 14.7356 19.735 14.7178 19.7646 14.7057C19.7941 14.6937 19.8258 14.6876 19.8577 14.688C19.9222 14.6878 19.9841 14.7132 20.0299 14.7586C20.0757 14.804 20.1015 14.8658 20.1018 14.9303ZM27.7254 21.9257C27.7254 22.0527 27.6749 22.1744 27.5852 22.2641C27.4955 22.3538 27.3737 22.4043 27.2468 22.4043H8.39353C8.26662 22.4043 8.1449 22.3538 8.05516 22.2641C7.96542 22.1744 7.91501 22.0527 7.91501 21.9257C7.91501 21.7988 7.96542 21.6771 8.05516 21.5874C8.1449 21.4976 8.26662 21.4472 8.39353 21.4472H27.247C27.3739 21.4473 27.4956 21.4977 27.5853 21.5875C27.675 21.6772 27.7254 21.7989 27.7254 21.9257ZM15.6257 14.9326C15.6258 15.1702 15.6964 15.4024 15.8284 15.6C15.9605 15.7975 16.1482 15.9514 16.3677 16.0423C16.5873 16.1332 16.8289 16.1569 17.0619 16.1105C17.2949 16.0641 17.509 15.9496 17.677 15.7816C17.845 15.6135 17.9593 15.3994 18.0057 15.1664C18.052 14.9333 18.0282 14.6918 17.9372 14.4722C17.8462 14.2527 17.6922 14.0651 17.4946 13.9331C17.2971 13.8011 17.0648 13.7307 16.8272 13.7307C16.5088 13.7318 16.2037 13.8587 15.9786 14.0839C15.7535 14.3091 15.6265 14.6142 15.6255 14.9326H15.6257ZM17.0713 14.9303C17.0717 14.9786 17.0577 15.026 17.0311 15.0664C17.0045 15.1068 16.9665 15.1384 16.9219 15.1572C16.8774 15.176 16.8282 15.1811 16.7807 15.1719C16.7332 15.1627 16.6895 15.1396 16.6552 15.1055C16.6208 15.0714 16.5974 15.0279 16.5878 14.9805C16.5782 14.9331 16.583 14.8839 16.6014 14.8392C16.6198 14.7944 16.6511 14.7562 16.6913 14.7293C16.7315 14.7024 16.7788 14.688 16.8272 14.688C16.8915 14.6881 16.9533 14.7136 16.9989 14.759C17.0446 14.8043 17.0706 14.8659 17.0711 14.9303H17.0713ZM27.8184 3.44663H23.9117V2.8478C23.9114 2.61506 23.8188 2.39193 23.6543 2.22735C23.4897 2.06278 23.2666 1.9702 23.0338 1.96993H20.0654C19.9578 1.45402 19.6759 0.990901 19.267 0.658458C18.858 0.326015 18.3471 0.144531 17.8201 0.144531C17.2931 0.144531 16.7822 0.326015 16.3733 0.658458C15.9644 0.990901 15.6824 1.45402 15.5748 1.96993H12.6064C12.3734 1.96993 12.1499 2.06235 11.985 2.22693C11.82 2.39151 11.7271 2.6148 11.7266 2.8478V3.44663H7.81951C7.31252 3.45007 6.82731 3.65316 6.46903 4.01189C6.11075 4.37062 5.90826 4.85609 5.90545 5.36308V22.1881C5.76395 22.1992 5.62299 22.2157 5.48258 22.2377C5.39108 22.2521 5.30571 22.2926 5.23681 22.3545C5.16792 22.4164 5.11846 22.4969 5.09443 22.5864L4.82612 23.5841C4.51532 23.6798 4.2143 23.8048 3.92713 23.9574L3.03237 23.4413C2.95189 23.3948 2.85963 23.3728 2.76685 23.3779C2.67408 23.383 2.58479 23.415 2.5099 23.47C2.04553 23.8101 1.63622 24.2195 1.29632 24.6839C1.24161 24.7588 1.20984 24.8479 1.20485 24.9405C1.19986 25.0331 1.22188 25.1251 1.26822 25.2054L1.78447 26.0998C1.63184 26.3869 1.50715 26.6881 1.41212 26.9991L0.415233 27.2673C0.325644 27.2914 0.244993 27.341 0.183096 27.4101C0.121198 27.4792 0.0807246 27.5648 0.0666006 27.6565C-0.0222002 28.2254 -0.0222002 28.8047 0.0666006 29.3736C0.0809692 29.465 0.121553 29.5503 0.183433 29.6192C0.245313 29.688 0.325832 29.7374 0.415233 29.7614L1.41239 30.0295C1.50786 30.3402 1.6326 30.6411 1.78495 30.9281L1.26829 31.8233C1.22183 31.9038 1.19981 31.9961 1.20492 32.0888C1.21003 32.1816 1.24205 32.2709 1.29707 32.3458C1.63707 32.8102 2.04642 33.2195 2.51079 33.5595C2.58568 33.6142 2.67483 33.6459 2.76741 33.6509C2.86 33.6559 2.95204 33.6339 3.03237 33.5876L3.92706 33.0713C4.21415 33.2239 4.51522 33.3486 4.82612 33.4436L5.09416 34.4405C5.11826 34.5301 5.16787 34.6107 5.23696 34.6726C5.30606 34.7345 5.39165 34.775 5.48333 34.7891C5.76832 34.8332 6.05627 34.8555 6.34466 34.8556C6.63116 34.8557 6.91722 34.8334 7.20024 34.7889C7.29168 34.7745 7.37698 34.7339 7.44581 34.672C7.51464 34.6101 7.56405 34.5296 7.58805 34.4402L7.85608 33.4431C8.16673 33.3477 8.4676 33.223 8.75467 33.0706L9.65018 33.5873C9.73066 33.6338 9.82293 33.6558 9.91573 33.6507C10.0085 33.6456 10.0978 33.6135 10.1727 33.5585C10.6379 33.2188 11.0476 32.8089 11.3872 32.3435C11.4307 32.2831 11.4595 32.2134 11.4713 32.1399H27.8207C28.3277 32.1364 28.813 31.9333 29.1712 31.5746C29.5295 31.2158 29.732 30.7303 29.7348 30.2233V5.36383C29.7319 4.8564 29.5291 4.37056 29.1703 4.01166C28.8116 3.65277 28.3258 3.44975 27.8184 3.44663ZM12.6836 2.9271H16.0051C16.132 2.9271 16.2537 2.87668 16.3434 2.78694C16.4332 2.6972 16.4836 2.57549 16.4836 2.44858V2.43894C16.4836 2.26347 16.5181 2.08973 16.5853 1.92762C16.6524 1.76551 16.7509 1.61821 16.8749 1.49414C16.999 1.37006 17.1463 1.27164 17.3084 1.2045C17.4705 1.13735 17.6443 1.10279 17.8197 1.10279C17.9952 1.10279 18.169 1.13735 18.3311 1.2045C18.4932 1.27164 18.6405 1.37006 18.7645 1.49414C18.8886 1.61821 18.987 1.76551 19.0542 1.92762C19.1213 2.08973 19.1559 2.26347 19.1559 2.43894V2.44858C19.1559 2.57549 19.2063 2.6972 19.296 2.78694C19.3858 2.87668 19.5075 2.9271 19.6344 2.9271H22.9539V4.47366H12.6838L12.6836 2.9271ZM9.84883 32.5969L8.99707 32.1053C8.92315 32.0627 8.83917 32.0406 8.75383 32.0413C8.66849 32.0421 8.5849 32.0656 8.51172 32.1095C8.15156 32.3271 7.7606 32.4889 7.35207 32.5897C7.26875 32.61 7.19242 32.6524 7.13109 32.7124C7.06976 32.7723 7.02567 32.8477 7.00344 32.9305L6.74798 33.8807C6.47763 33.9045 6.20571 33.9044 5.93539 33.8802L5.68007 32.9304C5.65784 32.8476 5.61375 32.7723 5.55242 32.7123C5.49108 32.6523 5.41476 32.61 5.33144 32.5896C4.92319 32.4898 4.53263 32.3282 4.17329 32.1103C4.1 32.0659 4.01616 32.0421 3.93051 32.0412C3.84486 32.0403 3.76055 32.0625 3.68637 32.1053L2.83434 32.5969C2.62636 32.4223 2.43406 32.2298 2.25964 32.0217L2.75114 31.1701C2.79379 31.0962 2.81589 31.0122 2.81516 30.9269C2.81443 30.8415 2.79088 30.7579 2.74697 30.6848C2.5294 30.3246 2.3675 29.9336 2.26675 29.5251C2.24636 29.4418 2.20398 29.3655 2.14404 29.3042C2.0841 29.2429 2.00879 29.1988 1.92598 29.1765L0.97578 28.9211C0.952049 28.6507 0.952209 28.3788 0.976259 28.1084L1.92604 27.8531C2.00889 27.8309 2.08423 27.7868 2.1442 27.7255C2.20416 27.6641 2.24653 27.5878 2.26688 27.5045C2.36637 27.0961 2.52774 26.7054 2.7454 26.3459C2.78975 26.2726 2.81361 26.1887 2.8145 26.1031C2.81539 26.0174 2.79327 25.9331 2.75046 25.8589L2.25875 25.0067C2.43335 24.7987 2.62581 24.6064 2.83393 24.432L3.68568 24.9235C3.75988 24.9663 3.84419 24.9884 3.92983 24.9875C4.01546 24.9866 4.0993 24.9628 4.17261 24.9185C4.53281 24.7005 4.92385 24.5381 5.33253 24.4367C5.41551 24.4162 5.49148 24.3738 5.55252 24.3139C5.61357 24.2541 5.65747 24.179 5.67966 24.0964L5.93505 23.1462C6.20541 23.1223 6.47735 23.1223 6.7477 23.1462L7.00303 24.0964C7.02522 24.179 7.06912 24.2541 7.13016 24.3139C7.19121 24.3738 7.26717 24.4162 7.35016 24.4367C7.75883 24.5381 8.14988 24.7005 8.51008 24.9185C8.5834 24.9628 8.66725 24.9866 8.75289 24.9875C8.83854 24.9884 8.92286 24.9663 8.99707 24.9235L9.84965 24.4313C10.0576 24.6058 10.2498 24.7983 10.4239 25.0066L9.93236 25.8585C9.88954 25.9327 9.86741 26.017 9.86829 26.1027C9.86917 26.1883 9.89302 26.2722 9.93735 26.3455C10.1553 26.7048 10.3169 27.0954 10.4167 27.5036C10.437 27.587 10.4794 27.6634 10.5394 27.7248C10.5994 27.7862 10.6748 27.8303 10.7577 27.8526L11.7097 28.1081C11.7335 28.3784 11.7334 28.6503 11.7093 28.9205L10.7597 29.1759C10.6772 29.1981 10.6021 29.242 10.5422 29.3031C10.4824 29.3641 10.44 29.4401 10.4194 29.5231C10.3181 29.9318 10.1557 30.3228 9.93763 30.683C9.89327 30.7563 9.8694 30.8402 9.86852 30.9258C9.86764 31.0115 9.88979 31.0959 9.93264 31.1701L10.4248 32.0225C10.2502 32.2306 10.0574 32.4228 9.84883 32.5969ZM28.7775 30.2224C28.7759 30.4764 28.6744 30.7195 28.4949 30.8993C28.3154 31.079 28.0723 31.1808 27.8183 31.1828H11.0448L10.8982 30.9287C11.0508 30.6415 11.1758 30.3405 11.2715 30.0297L12.2696 29.7614C12.3591 29.7373 12.4398 29.6877 12.5017 29.6186C12.5636 29.5495 12.6041 29.4639 12.6182 29.3723C12.6323 29.2808 12.6434 29.1893 12.653 29.0977H27.2467C27.3736 29.0977 27.4953 29.0473 27.5851 28.9576C27.6748 28.8678 27.7252 28.7461 27.7252 28.6192C27.7252 28.4923 27.6748 28.3706 27.5851 28.2809C27.4953 28.1911 27.3736 28.1407 27.2467 28.1407H12.6715C12.6606 27.9782 12.6433 27.8163 12.618 27.6554C12.6036 27.5639 12.5631 27.4786 12.5012 27.4097C12.4393 27.3409 12.3588 27.2914 12.2694 27.2674L11.2707 26.9994C11.1756 26.6885 11.0509 26.3874 10.8983 26.1002L11.0997 25.7516H27.2467C27.3736 25.7516 27.4953 25.7012 27.5851 25.6115C27.6748 25.5217 27.7252 25.4 27.7252 25.2731C27.7252 25.1462 27.6748 25.0245 27.5851 24.9347C27.4953 24.845 27.3736 24.7946 27.2467 24.7946H11.4456C11.4306 24.7552 11.4104 24.718 11.3857 24.6838C11.046 24.2186 10.6361 23.8089 10.1707 23.4694C10.0958 23.4151 10.0069 23.3836 9.9145 23.3787C9.82214 23.3738 9.73035 23.3959 9.65024 23.4421L8.75562 23.9583C8.46849 23.8054 8.16747 23.6801 7.85663 23.5841L7.58839 22.5861C7.56429 22.4965 7.51468 22.4159 7.44559 22.354C7.37649 22.2921 7.2909 22.2516 7.19922 22.2375C7.08711 22.2202 6.97486 22.2072 6.86262 22.1964V5.36424C6.86424 5.11024 6.96579 4.86709 7.1453 4.68738C7.3248 4.50767 7.56784 4.40585 7.82184 4.40393H11.7266V4.55726C11.7302 4.78891 11.8242 5.00996 11.9886 5.1732C12.153 5.33645 12.3747 5.42896 12.6064 5.43096H23.0338C23.2666 5.43069 23.4898 5.33808 23.6543 5.17346C23.8189 5.00884 23.9115 4.78566 23.9117 4.55289V4.40393H27.816C28.0704 4.40558 28.314 4.50735 28.494 4.68723C28.6739 4.86711 28.7758 5.11062 28.7776 5.36506L28.7775 30.2224ZM27.7253 18.5808C27.7253 18.7077 27.6749 18.8294 27.5851 18.9191C27.4954 19.0089 27.3737 19.0593 27.2468 19.0593H8.39353C8.26662 19.0593 8.1449 19.0089 8.05516 18.9191C7.96542 18.8294 7.91501 18.7077 7.91501 18.5808C7.91501 18.4539 7.96542 18.3322 8.05516 18.2424C8.1449 18.1527 8.26662 18.1023 8.39353 18.1023H27.247C27.3099 18.1023 27.3721 18.1147 27.4302 18.1388C27.4882 18.1629 27.541 18.1981 27.5854 18.2426C27.6298 18.287 27.665 18.3398 27.689 18.3979C27.713 18.456 27.7254 18.5182 27.7254 18.5811L27.7253 18.5808ZM6.34131 25.3888C5.7231 25.3888 5.11877 25.5722 4.60474 25.9156C4.09072 26.2591 3.69009 26.7472 3.45351 27.3184C3.21693 27.8895 3.15503 28.518 3.27564 29.1244C3.39624 29.7307 3.69394 30.2876 4.13108 30.7248C4.56822 31.1619 5.12518 31.4596 5.73151 31.5802C6.33784 31.7008 6.96632 31.6389 7.53747 31.4024C8.10863 31.1658 8.5968 30.7652 8.94026 30.2511C9.28372 29.7371 9.46704 29.1328 9.46704 28.5146C9.46612 27.6859 9.13651 26.8913 8.55052 26.3054C7.96453 25.7194 7.17002 25.3898 6.34131 25.3888ZM6.34131 30.683C5.91244 30.683 5.4932 30.5558 5.13661 30.3175C4.78003 30.0792 4.5021 29.7406 4.33799 29.3443C4.17388 28.9481 4.13095 28.5121 4.21462 28.0915C4.2983 27.6709 4.50483 27.2845 4.80809 26.9812C5.11135 26.678 5.49773 26.4715 5.91836 26.3878C6.33899 26.3041 6.77499 26.3471 7.17121 26.5112C7.56744 26.6753 7.9061 26.9533 8.14436 27.3099C8.38263 27.6665 8.5098 28.0857 8.5098 28.5146C8.50912 29.0895 8.28042 29.6406 7.8739 30.0471C7.46737 30.4536 6.9162 30.6822 6.34131 30.6829V30.683ZM34.9647 10.4885L33.3815 6.59738C33.3457 6.50915 33.2843 6.43361 33.2054 6.38043C33.1264 6.32725 33.0333 6.29884 32.9381 6.29884C32.8429 6.29884 32.7498 6.32725 32.6708 6.38043C32.5919 6.43361 32.5305 6.50915 32.4947 6.59738L30.9116 10.4885C30.8883 10.5458 30.8763 10.6071 30.8763 10.6689V27.2256C30.8747 27.4973 30.9269 27.7667 31.0298 28.0183C31.1328 28.2698 31.2844 28.4985 31.476 28.6912C31.6676 28.8839 31.8954 29.0369 32.1464 29.1412C32.3973 29.2456 32.6664 29.2993 32.9381 29.2993C33.2099 29.2993 33.479 29.2456 33.7299 29.1412C33.9808 29.0369 34.2087 28.8839 34.4003 28.6912C34.5919 28.4985 34.7435 28.2698 34.8464 28.0183C34.9493 27.7667 35.0015 27.4973 35 27.2256V10.6689C35 10.6071 34.988 10.5458 34.9647 10.4885ZM32.9381 8.04776L33.8098 10.1902H32.0667L32.9381 8.04776ZM34.0429 27.2257C34.0429 27.5187 33.9266 27.7996 33.7194 28.0068C33.5123 28.2139 33.2313 28.3303 32.9384 28.3303C32.6454 28.3303 32.3645 28.2139 32.1573 28.0068C31.9502 27.7996 31.8338 27.5187 31.8338 27.2257V25.2179H34.0429V27.2257ZM34.0429 24.2608H31.8335V11.1476H34.0429V24.2608Z" fill="white"/>
</g>
<defs>
<clipPath id="clip0_2002_466">
<rect width="35" height="35" fill="white"/>
</clipPath>
</defs>
</svg>
