<svg width="24" height="24" viewBox="0 0 24 24" fill="none" xmlns="http://www.w3.org/2000/svg">
<g clip-path="url(#clip0_2002_690)">
<path d="M12.2568 1.55176C12.5704 1.55177 12.8768 1.64747 13.1338 1.82715C13.3906 2.00672 13.5856 2.26138 13.6934 2.55566L15.7607 8.17578C15.7676 8.19431 15.7792 8.21073 15.7949 8.22266C15.8109 8.23461 15.8307 8.24179 15.8506 8.24316H15.8496L21.8486 8.46973H21.8477C22.167 8.47496 22.4768 8.58039 22.7334 8.77051C22.99 8.96062 23.1803 9.22634 23.2783 9.53027C23.3764 9.83427 23.3775 10.1616 23.2803 10.4658C23.183 10.77 22.9924 11.0358 22.7363 11.2266L18.0312 14.9258L18.0088 14.9482C18.0032 14.956 17.9982 14.9644 17.9951 14.9736C17.9888 14.9925 17.9894 15.0132 17.9951 15.0322V15.0332L19.6279 20.793L19.6289 20.7939C19.6881 21.0223 19.6934 21.2612 19.6455 21.4922C19.5976 21.7232 19.4968 21.9401 19.3516 22.126C19.2063 22.3119 19.0201 22.4621 18.8076 22.5645C18.5954 22.6666 18.3625 22.718 18.127 22.7158V22.7168C17.8223 22.7174 17.5245 22.6261 17.2725 22.4551L12.2988 19.1211C12.2827 19.1099 12.2628 19.1045 12.2432 19.1045C12.2236 19.1045 12.2045 19.11 12.1885 19.1211H12.1875L7.21484 22.4551C6.95676 22.6274 6.65208 22.7166 6.3418 22.7119C6.03145 22.7072 5.7293 22.6089 5.47656 22.4287C5.2238 22.2485 5.03243 21.995 4.92676 21.7031C4.8211 21.4112 4.80595 21.0942 4.88477 20.7939L4.88574 20.793L6.51855 15.0332C6.52359 15.0139 6.5229 14.9936 6.5166 14.9746C6.51021 14.9554 6.4983 14.9383 6.48242 14.9258L1.77539 11.2256V11.2246C1.52033 11.034 1.33039 10.7692 1.2334 10.4658C1.1362 10.1616 1.1364 9.83421 1.23438 9.53027C1.33241 9.22629 1.52362 8.96064 1.78027 8.77051C2.03669 8.58056 2.34599 8.47513 2.66504 8.46973L8.66309 8.24316C8.68292 8.24179 8.70185 8.23457 8.71777 8.22266C8.73372 8.2107 8.74605 8.19448 8.75293 8.17578L10.8193 2.55664L10.8643 2.44727C10.9774 2.19895 11.1551 1.98431 11.3799 1.82715C11.6369 1.64749 11.9433 1.55176 12.2568 1.55176ZM12.2266 3C12.2061 3.00004 12.1864 3.00741 12.1699 3.01953C12.1617 3.02561 12.1543 3.03277 12.1484 3.04102L12.1338 3.07031L10.0869 8.68359C9.98309 8.96926 9.79627 9.21728 9.55078 9.39648C9.30538 9.5756 9.01257 9.67855 8.70898 9.69043L2.70898 9.91699H2.70605C2.68545 9.91666 2.66523 9.92264 2.64844 9.93457C2.63161 9.94659 2.6187 9.96373 2.6123 9.9834C2.60593 10.003 2.60579 10.0244 2.6123 10.0439C2.6156 10.0538 2.62079 10.0631 2.62695 10.0713L2.64844 10.0928L2.65137 10.0938L7.36426 13.8008L7.45117 13.874C7.64654 14.0516 7.79331 14.2772 7.87598 14.5293C7.97045 14.8176 7.97663 15.1278 7.89453 15.4199L6.26855 21.1807L6.26758 21.1826C6.26134 21.2012 6.26139 21.2217 6.26758 21.2402C6.27379 21.2585 6.28585 21.2742 6.30176 21.2852L6.30566 21.2881V21.2891C6.32075 21.302 6.3405 21.3086 6.36035 21.3086C6.37999 21.3085 6.39908 21.3017 6.41406 21.2891L6.41895 21.2852L11.3926 17.9521C11.6324 17.7921 11.9125 17.7037 12.2002 17.6973L12.208 17.6689L12.248 17.6699C12.5524 17.6788 12.8472 17.7794 13.0938 17.958H13.0947L18.0684 21.292L18.0703 21.293V21.2939C18.0868 21.3065 18.1072 21.3133 18.1279 21.3135C18.1488 21.3136 18.1697 21.3073 18.1865 21.2949C18.2032 21.2826 18.2156 21.2649 18.2217 21.2451C18.2277 21.2252 18.2268 21.2032 18.2197 21.1836L18.2188 21.1807L16.585 15.4199C16.502 15.128 16.5081 14.8177 16.6025 14.5293C16.6971 14.2407 16.8764 13.9871 17.1162 13.8008L21.8223 10.1006L21.8242 10.0986C21.841 10.0868 21.8538 10.0703 21.8604 10.0508C21.8669 10.0312 21.8677 10.0098 21.8613 9.99023C21.8549 9.97057 21.842 9.95343 21.8252 9.94141C21.8084 9.92941 21.7882 9.92252 21.7676 9.92285L21.7646 9.92383V9.92285L15.7646 9.69629C15.461 9.68442 15.1673 9.58249 14.9219 9.40332C14.7074 9.24662 14.5382 9.03695 14.4297 8.7959L14.3867 8.69043L12.3203 3.07031L12.3057 3.04102C12.2998 3.03275 12.2924 3.02564 12.2842 3.01953C12.2676 3.00732 12.2472 3 12.2266 3Z" fill="white" stroke="white" stroke-width="0.1"/>
</g>
<defs>
<clipPath id="clip0_2002_690">
<rect width="24" height="24" fill="white"/>
</clipPath>
</defs>
</svg>
