<svg width="27" height="27" viewBox="0 0 27 27" fill="none" xmlns="http://www.w3.org/2000/svg">
<path d="M20.7626 11.7563C20.5287 10.2656 19.8358 8.88485 18.7805 7.80631C17.7251 6.72777 16.3597 6.00509 14.8744 5.73884C13.3891 5.4726 11.8577 5.67604 10.4934 6.32086C9.12912 6.96568 7.9998 8.01978 7.26263 9.33646C6.54751 9.39563 5.85104 9.59506 5.213 9.92339C4.57495 10.2517 4.00782 10.7025 3.54399 11.25C3.08016 11.7975 2.72872 12.431 2.50972 13.1144C2.29072 13.7977 2.20846 14.5175 2.26764 15.2326C2.32611 15.9476 2.52487 16.6442 2.85255 17.2824C3.18023 17.9207 3.63041 18.4881 4.1774 18.9524C4.72439 19.4166 5.35747 19.7686 6.04049 19.9882C6.7235 20.2077 7.44308 20.2906 8.15813 20.2321H20.253C20.8093 20.2656 21.3667 20.1891 21.8934 20.0071C22.4202 19.825 22.9058 19.5409 23.3227 19.1711C23.7396 18.8012 24.0795 18.3528 24.323 17.8516C24.5665 17.3503 24.7088 16.8059 24.7418 16.2496C24.7756 15.6933 24.6994 15.1358 24.5176 14.609C24.3359 14.0821 24.052 13.5963 23.6824 13.1792C23.3127 12.7621 22.8645 12.422 22.3633 12.1782C21.8621 11.9344 21.3178 11.7919 20.7615 11.7586L20.7626 11.7563Z" stroke="white" stroke-width="2" stroke-linecap="round" stroke-linejoin="round"/>
</svg>
