<svg width="45" height="38" viewBox="0 0 45 38" fill="none" xmlns="http://www.w3.org/2000/svg">
<path d="M29.1621 32.2685C31.6576 31.0714 32.8954 28.932 33.4608 27.1152C34.0263 28.932 35.2641 31.0714 37.7596 32.2685C35.4465 33.3889 34.0084 35.481 33.4608 37.4218C32.9133 35.481 31.4752 33.3889 29.1621 32.2685Z" fill="white"/>
<path d="M44.6383 25.82C43.0191 24.9792 42.0124 23.4092 41.6287 21.9526C41.245 23.4092 40.2383 24.9792 38.6191 25.82C40.366 26.7184 41.2324 28.324 41.6287 29.6874C42.025 28.324 42.8914 26.7184 44.6383 25.82Z" fill="white"/>
<path d="M41.6288 21.9531C41.4456 22.6481 41.1158 23.3659 40.6502 24.021C41.0275 24.739 41.5626 25.3806 42.4093 25.8203C41.5267 26.2742 41.0008 26.9087 40.6436 27.6012C41.1196 28.2794 41.4327 29.0129 41.6288 29.6875C42.0251 28.3241 42.8914 26.7187 44.6382 25.8203C43.0191 24.9795 42.0125 23.4097 41.6288 21.9531Z" fill="white"/>
<path d="M38.1597 20.4377C36.7718 19.6903 35.9089 18.2947 35.5798 17C35.2508 18.2947 34.3879 19.6903 33 20.4377C34.4974 21.2363 35.24 22.6635 35.5798 23.8755C35.9197 22.6635 36.6623 21.2363 38.1597 20.4377Z" fill="white"/>
<path d="M35.5798 17.0005C35.4083 17.6755 35.0886 18.3759 34.6281 18.9996C34.9674 19.572 35.4275 20.0803 36.0917 20.438C35.398 20.8079 34.9473 21.3155 34.623 21.8714C35.0922 22.5156 35.3973 23.2248 35.5798 23.8755C35.9196 22.6636 36.6622 21.2366 38.1595 20.438C36.7716 19.6906 35.9088 18.2952 35.5798 17.0005Z" fill="white"/>
<path d="M26 8.5C28.4759 8.50001 30.4998 10.5499 30.5 13.0996V13.1006C30.5042 16.387 28.1598 19.233 25.6826 21.3076C24.4572 22.3338 23.2287 23.1468 22.3057 23.7031C21.8449 23.9808 21.4615 24.1938 21.1943 24.3369C21.1208 24.3763 21.055 24.4089 21 24.4375C20.9451 24.4089 20.8799 24.3762 20.8066 24.3369C20.5397 24.1938 20.156 23.9809 19.6953 23.7031C18.7729 23.1468 17.5452 22.3338 16.3203 21.3076C13.8442 19.233 11.4994 16.3864 11.5 13.0996C11.5002 10.5499 13.5241 8.50001 16 8.5C17.4834 8.5 18.6126 9.25432 19.3926 10.0498C19.781 10.446 20.0735 10.8441 20.2686 11.1426C20.3657 11.2912 20.4382 11.4139 20.4854 11.498C20.5089 11.5401 20.5262 11.5729 20.5371 11.5938C20.5425 11.6041 20.5466 11.6117 20.5488 11.6162C20.5497 11.618 20.5504 11.6193 20.5508 11.6201L21 12.5361L21.4492 11.6201C21.4496 11.6193 21.4502 11.618 21.4512 11.6162C21.4534 11.6117 21.4575 11.6041 21.4629 11.5938C21.4738 11.5729 21.4911 11.5401 21.5146 11.498C21.5618 11.4139 21.6343 11.2912 21.7314 11.1426C21.9265 10.8441 22.219 10.446 22.6074 10.0498C23.3874 9.25432 24.5166 8.5 26 8.5Z" stroke="white"/>
<path d="M33.4607 27.1162C33.2408 27.8226 32.9146 28.577 32.457 29.3066C32.9271 30.4533 33.6578 31.5375 35.1828 32.2691C33.7399 32.968 32.9725 34.0441 32.4654 35.2265C32.9227 35.9398 33.2547 36.6918 33.4607 37.422C34.0083 35.4812 35.4461 33.3896 37.7592 32.2691C35.2637 31.072 34.0262 28.9329 33.4607 27.1162Z" fill="white"/>
<path d="M26.8012 8C27.8608 8.93953 28.5473 10.3245 28.5473 11.8897C28.5566 18.6597 19.7718 23.2964 19 23.6923C20.2504 24.5092 21.1892 25 21.1892 25C21.1892 25 31.0087 20.1208 31 13.0474C31 10.471 29.1729 8.36013 26.8012 8Z" fill="white"/>
<path d="M10.3106 0C10.7404 0 11.1699 0.286152 11.1699 0.859332V5.15602C11.1699 6.30209 9.45123 6.30209 9.45123 5.15602V0.859332C9.45123 0.286282 9.88078 0 10.3106 0Z" fill="white"/>
<path d="M4.56415 3.33634L7.60203 6.37426C8.41248 7.18464 7.19561 8.40145 6.38522 7.5911L3.34731 4.55318C2.7395 3.94541 3.27228 3.10914 3.91799 3.07122C4.13333 3.05831 4.36157 3.13399 4.56415 3.33634Z" fill="white"/>
<path d="M5.15607 9.44092C6.30214 9.44092 6.30214 11.1595 5.15607 11.1595H0.859353C-0.286683 11.1595 -0.286683 9.44092 0.859353 9.44092H5.15607Z" fill="white"/>
</svg>
