<svg width="26" height="26" viewBox="0 0 26 26" fill="none" xmlns="http://www.w3.org/2000/svg">
<path d="M2.4375 6.5V4.875C2.4375 4.68661 2.50282 4.50487 2.62109 4.36035L2.67578 4.30078C2.82815 4.14841 3.03451 4.0625 3.25 4.0625V7.3125C3.06161 7.3125 2.87987 7.24718 2.73535 7.12891L2.67578 7.07422C2.52341 6.92185 2.4375 6.71549 2.4375 6.5ZM4.875 4.0625C5.09049 4.0625 5.29685 4.14841 5.44922 4.30078C5.60159 4.45315 5.6875 4.65951 5.6875 4.875V6.5C5.6875 6.71549 5.60159 6.92185 5.44922 7.07422C5.29685 7.22659 5.09049 7.3125 4.875 7.3125V4.0625Z" fill="white" stroke="white" stroke-width="42"/>
<path d="M8.125 5.6875C8.125 5.47201 8.2106 5.26535 8.36298 5.11298C8.51535 4.9606 8.72201 4.875 8.9375 4.875H23.5625C23.778 4.875 23.9847 4.9606 24.137 5.11298C24.2894 5.26535 24.375 5.47201 24.375 5.6875C24.375 5.90299 24.2894 6.10965 24.137 6.26202C23.9847 6.4144 23.778 6.5 23.5625 6.5H8.9375C8.72201 6.5 8.51535 6.4144 8.36298 6.26202C8.2106 6.10965 8.125 5.90299 8.125 5.6875ZM8.9375 11.375C8.72201 11.375 8.51535 11.4606 8.36298 11.613C8.2106 11.7653 8.125 11.972 8.125 12.1875C8.125 12.403 8.2106 12.6097 8.36298 12.762C8.51535 12.9144 8.72201 13 8.9375 13H23.5625C23.778 13 23.9847 12.9144 24.137 12.762C24.2894 12.6097 24.375 12.403 24.375 12.1875C24.375 11.972 24.2894 11.7653 24.137 11.613C23.9847 11.4606 23.778 11.375 23.5625 11.375H8.9375ZM8.9375 17.875C8.72201 17.875 8.51535 17.9606 8.36298 18.113C8.2106 18.2653 8.125 18.472 8.125 18.6875C8.125 18.903 8.2106 19.1097 8.36298 19.262C8.51535 19.4144 8.72201 19.5 8.9375 19.5H23.5625C23.778 19.5 23.9847 19.4144 24.137 19.262C24.2894 19.1097 24.375 18.903 24.375 18.6875C24.375 18.472 24.2894 18.2653 24.137 18.113C23.9847 17.9606 23.778 17.875 23.5625 17.875H8.9375Z" fill="white"/>
<path d="M3.25 17.5625H4.875C4.95788 17.5625 5.0371 17.5957 5.0957 17.6543C5.15431 17.7129 5.1875 17.7921 5.1875 17.875V19.5C5.1875 19.5829 5.15431 19.6621 5.0957 19.7207C5.0371 19.7793 4.95788 19.8125 4.875 19.8125V19H3.25V19.8125C3.16712 19.8125 3.0879 19.7793 3.0293 19.7207C2.97069 19.6621 2.9375 19.5829 2.9375 19.5V17.875C2.9375 17.7921 2.97069 17.7129 3.0293 17.6543C3.0879 17.5957 3.16712 17.5625 3.25 17.5625ZM3.25 11.0625H4.875C4.95788 11.0625 5.0371 11.0957 5.0957 11.1543C5.15431 11.2129 5.1875 11.2921 5.1875 11.375V13C5.1875 13.0829 5.15431 13.1621 5.0957 13.2207C5.0371 13.2793 4.95788 13.3125 4.875 13.3125V12.5H3.25V13.3125C3.16712 13.3125 3.0879 13.2793 3.0293 13.2207C2.97069 13.1621 2.9375 13.0829 2.9375 13V11.375C2.9375 11.2921 2.97069 11.2129 3.0293 11.1543C3.0879 11.0957 3.16712 11.0625 3.25 11.0625Z" fill="white" stroke="white"/>
</svg>
