<svg width="57" height="50" viewBox="0 0 57 50" fill="none" xmlns="http://www.w3.org/2000/svg">
<g clip-path="url(#clip0_259_1554)">
<path d="M13.3594 28.125C15.2484 28.1231 17.0594 27.4641 18.3952 26.2924C19.7309 25.1207 20.4823 23.532 20.4844 21.875V17.9688C20.4844 17.7615 20.3905 17.5628 20.2235 17.4163C20.0565 17.2698 19.83 17.1875 19.5938 17.1875C19.3575 17.1875 19.131 17.2698 18.964 17.4163C18.797 17.5628 18.7031 17.7615 18.7031 17.9688V21.875C18.7031 23.1182 18.1401 24.3105 17.138 25.1896C16.1358 26.0686 14.7766 26.5625 13.3594 26.5625C11.9421 26.5625 10.5829 26.0686 9.58077 25.1896C8.57863 24.3105 8.01562 23.1182 8.01562 21.875V19.5312C8.01562 19.324 7.92179 19.1253 7.75477 18.9788C7.58774 18.8323 7.36121 18.75 7.125 18.75C6.88879 18.75 6.66226 18.8323 6.49523 18.9788C6.32821 19.1253 6.23438 19.324 6.23438 19.5312V21.875C6.2365 23.532 6.98785 25.1207 8.32358 26.2924C9.65932 27.4641 11.4704 28.1231 13.3594 28.125Z" fill="white"/>
<path d="M7.125 17.1875H16.0312C17.2119 17.1863 18.3437 16.7743 19.1785 16.042C20.0133 15.3097 20.483 14.3169 20.4844 13.2812V11.7188C20.4844 11.5115 20.3905 11.3128 20.2235 11.1663C20.0565 11.0198 19.83 10.9375 19.5938 10.9375H10.6875C9.50689 10.9387 8.37504 11.3507 7.54023 12.083C6.70541 12.8153 6.23579 13.8081 6.23438 14.8438V16.4062C6.23438 16.6135 6.32821 16.8122 6.49523 16.9587C6.66226 17.1052 6.88879 17.1875 7.125 17.1875ZM8.01562 14.8438C8.01562 14.2221 8.29712 13.626 8.7982 13.1865C9.29927 12.7469 9.97887 12.5 10.6875 12.5H18.7031V13.2812C18.7031 13.9029 18.4216 14.499 17.9206 14.9385C17.4195 15.3781 16.7399 15.625 16.0312 15.625H8.01562V14.8438Z" fill="white"/>
<path d="M16.2667 29.9807C15.9228 30.358 15.4865 30.6626 14.9902 30.872C14.4938 31.0813 13.9501 31.19 13.3994 31.19C12.8486 31.19 12.3049 31.0813 11.8086 30.872C11.3122 30.6626 10.8759 30.358 10.532 29.9807C10.4595 29.899 10.3693 29.8307 10.2665 29.7799C10.1637 29.7291 10.0504 29.6967 9.93321 29.6846C9.81602 29.6725 9.69725 29.6809 9.58381 29.7094C9.47037 29.7379 9.36452 29.7859 9.27241 29.8506C9.1803 29.9153 9.10376 29.9954 9.04725 30.0863C8.99074 30.1772 8.95537 30.277 8.94322 30.38C8.93106 30.4829 8.94235 30.587 8.97643 30.6861C9.01051 30.7852 9.0667 30.8774 9.14174 30.9572C9.65245 31.5175 10.3003 31.9697 11.0373 32.2806C11.7743 32.5914 12.5816 32.7527 13.3994 32.7527C14.2171 32.7527 15.0244 32.5914 15.7614 32.2806C16.4984 31.9697 17.1463 31.5175 17.657 30.9572C17.732 30.8774 17.7882 30.7852 17.8223 30.6861C17.8564 30.587 17.8677 30.4829 17.8555 30.38C17.8434 30.277 17.808 30.1772 17.7515 30.0863C17.695 29.9954 17.6184 29.9153 17.5263 29.8506C17.4342 29.7859 17.3284 29.7379 17.2149 29.7094C17.1015 29.6809 16.9827 29.6725 16.8655 29.6846C16.7483 29.6967 16.635 29.7291 16.5323 29.7799C16.4295 29.8307 16.3392 29.899 16.2667 29.9807Z" fill="white"/>
<path d="M20.5234 29.5576C22.0482 29.559 23.5239 30.042 24.6797 30.9209C25.8041 31.7761 26.5525 32.952 26.7949 34.2451H27.6094C28.3473 34.2451 29.0576 34.5022 29.584 34.9639C30.1109 35.4261 30.4111 36.0568 30.4111 36.7188V49.2188C30.4111 49.4663 30.2993 49.7 30.1064 49.8691C29.9141 50.0378 29.6562 50.1299 29.3906 50.1299H0.890625C0.625039 50.1299 0.367123 50.0378 0.174805 49.8691C-0.0180174 49.7 -0.129883 49.4663 -0.129883 49.2188V35.1562L-0.12207 34.8779C-0.0419624 33.4896 0.622228 32.1758 1.74219 31.1934C2.93621 30.146 4.55216 29.5593 6.23438 29.5576L6.33301 29.5615C6.56305 29.5814 6.7818 29.6706 6.9502 29.8184C7.14302 29.9875 7.25488 30.2212 7.25488 30.4688C7.25488 30.7163 7.14302 30.95 6.9502 31.1191C6.75788 31.2878 6.49996 31.3799 6.23438 31.3799C5.08317 31.3811 3.98238 31.7831 3.17285 32.4932C2.36388 33.2028 1.91255 34.161 1.91113 35.1562V48.3076H8.77637V45.4424H6.23438C5.96879 45.4424 5.71087 45.3503 5.51855 45.1816C5.32573 45.0125 5.21387 44.7788 5.21387 44.5312C5.21387 44.2837 5.32573 44.05 5.51855 43.8809C5.71087 43.7122 5.96879 43.6201 6.23438 43.6201H8.77637V36.7188C8.77637 36.0568 9.0766 35.4261 9.60352 34.9639C10.1299 34.5022 10.8402 34.2451 11.5781 34.2451H24.7197C24.495 33.4603 23.9866 32.755 23.2637 32.2373C22.4919 31.6846 21.524 31.3808 20.5234 31.3799C20.2579 31.3799 19.9999 31.2878 19.8076 31.1191C19.6148 30.95 19.5029 30.7163 19.5029 30.4688C19.5029 30.2212 19.6148 29.9875 19.8076 29.8184C19.9999 29.6497 20.2579 29.5576 20.5234 29.5576ZM11.5781 36.0674C11.3714 36.0674 11.1759 36.1395 11.0342 36.2637C10.893 36.3875 10.8174 36.5519 10.8174 36.7188V48.3076H28.3701V36.7188C28.3701 36.5519 28.2945 36.3875 28.1533 36.2637C28.0116 36.1395 27.8161 36.0674 27.6094 36.0674H11.5781Z" fill="white" stroke="white" stroke-width="0.26"/>
<path d="M19.5938 42.1875C20.0856 42.1875 20.4844 41.8377 20.4844 41.4062C20.4844 40.9748 20.0856 40.625 19.5938 40.625C19.1019 40.625 18.7031 40.9748 18.7031 41.4062C18.7031 41.8377 19.1019 42.1875 19.5938 42.1875Z" fill="white"/>
<path d="M54.3281 -0.129883C55.066 -0.129883 55.7764 0.127237 56.3027 0.588867C56.8296 1.05107 57.1299 1.68176 57.1299 2.34375V41.4062C57.1299 42.0682 56.8296 42.6989 56.3027 43.1611C55.7764 43.6228 55.066 43.8799 54.3281 43.8799H32.9531C32.6875 43.8799 32.4296 43.7878 32.2373 43.6191C32.0445 43.45 31.9326 43.2163 31.9326 42.9688C31.9326 42.7212 32.0445 42.4875 32.2373 42.3184C32.4296 42.1497 32.6875 42.0576 32.9531 42.0576H54.3281C54.5348 42.0576 54.7304 41.9855 54.8721 41.8613C55.0133 41.7375 55.0889 41.5731 55.0889 41.4062V2.34375C55.0889 2.17693 55.0133 2.01252 54.8721 1.88867C54.7304 1.76448 54.5348 1.69238 54.3281 1.69238H15.1406C14.9339 1.69238 14.7384 1.76448 14.5967 1.88867C14.4555 2.01252 14.3799 2.17693 14.3799 2.34375V8.59375C14.3799 8.84131 14.268 9.07497 14.0752 9.24414C13.8829 9.41284 13.625 9.50488 13.3594 9.50488C13.0938 9.50488 12.8359 9.41284 12.6436 9.24414C12.4507 9.07497 12.3389 8.84131 12.3389 8.59375V2.34375C12.3389 1.68176 12.6391 1.05107 13.166 0.588867C13.6924 0.127237 14.4027 -0.129883 15.1406 -0.129883H54.3281Z" fill="white" stroke="white" stroke-width="0.26"/>
<path d="M16.9219 4.6875C17.4138 4.6875 17.8125 4.33772 17.8125 3.90625C17.8125 3.47478 17.4138 3.125 16.9219 3.125C16.43 3.125 16.0312 3.47478 16.0312 3.90625C16.0312 4.33772 16.43 4.6875 16.9219 4.6875Z" fill="white"/>
<path d="M20.4844 4.6875C20.9763 4.6875 21.375 4.33772 21.375 3.90625C21.375 3.47478 20.9763 3.125 20.4844 3.125C19.9925 3.125 19.5938 3.47478 19.5938 3.90625C19.5938 4.33772 19.9925 4.6875 20.4844 4.6875Z" fill="white"/>
<path d="M24.0469 4.6875C24.5388 4.6875 24.9375 4.33772 24.9375 3.90625C24.9375 3.47478 24.5388 3.125 24.0469 3.125C23.555 3.125 23.1562 3.47478 23.1562 3.90625C23.1562 4.33772 23.555 4.6875 24.0469 4.6875Z" fill="white"/>
<path d="M52.5469 3.125H27.6094C27.3732 3.125 27.1466 3.20731 26.9796 3.35382C26.8126 3.50034 26.7188 3.69905 26.7188 3.90625C26.7188 4.11345 26.8126 4.31216 26.9796 4.45868C27.1466 4.60519 27.3732 4.6875 27.6094 4.6875H52.5469C52.7831 4.6875 53.0096 4.60519 53.1766 4.45868C53.3437 4.31216 53.4375 4.11345 53.4375 3.90625C53.4375 3.69905 53.3437 3.50034 53.1766 3.35382C53.0096 3.20731 52.7831 3.125 52.5469 3.125Z" fill="white"/>
<path d="M23.1562 25H24.0469V27.3438C24.0468 27.491 24.0942 27.6352 24.1835 27.7598C24.2728 27.8845 24.4004 27.9844 24.5517 28.0482C24.703 28.112 24.8717 28.1369 25.0384 28.1203C25.2052 28.1036 25.3631 28.0459 25.4941 27.9539L29.7032 25H33.8438C35.0244 24.9988 36.1562 24.5868 36.991 23.8545C37.8258 23.1222 38.2955 22.1294 38.2969 21.0938V11.7188C38.2955 10.6831 37.8258 9.69028 36.991 8.95798C36.1562 8.22569 35.0244 7.81374 33.8438 7.8125H23.1562C22.92 7.8125 22.6935 7.89481 22.5265 8.04132C22.3595 8.18784 22.2656 8.38655 22.2656 8.59375C22.2656 8.80095 22.3595 8.99966 22.5265 9.14618C22.6935 9.29269 22.92 9.375 23.1562 9.375H33.8438C34.5524 9.375 35.232 9.62193 35.733 10.0615C36.2341 10.501 36.5156 11.0971 36.5156 11.7188V21.0938C36.5156 21.7154 36.2341 22.3115 35.733 22.751C35.232 23.1906 34.5524 23.4375 33.8438 23.4375H29.3906C29.1883 23.4374 28.992 23.4978 28.834 23.6086L25.8281 25.718V24.2188C25.8281 24.0115 25.7343 23.8128 25.5673 23.6663C25.4002 23.5198 25.1737 23.4375 24.9375 23.4375H23.1562C22.92 23.4375 22.6935 23.5198 22.5265 23.6663C22.3595 23.8128 22.2656 24.0115 22.2656 24.2188C22.2656 24.426 22.3595 24.6247 22.5265 24.7712C22.6935 24.9177 22.92 25 23.1562 25Z" fill="white"/>
<path d="M34.7344 16.4062C34.7464 15.1857 34.2966 13.9962 33.4555 13.0239C32.6143 12.0516 31.4293 11.3515 30.086 11.0332C28.7428 10.7149 27.3171 10.7963 26.0322 11.2648C24.7474 11.7333 23.6759 12.5623 22.9856 13.622C22.2954 14.6818 22.0253 15.9125 22.2176 17.1213C22.41 18.3301 23.0539 19.4489 24.0486 20.3023C25.0434 21.1558 26.3327 21.6957 27.7146 21.8377C29.0966 21.9796 30.4932 21.7155 31.6858 21.0867L32.3235 21.6461C32.4915 21.7884 32.7164 21.8671 32.95 21.8653C33.1835 21.8636 33.4069 21.7814 33.572 21.6365C33.7371 21.4917 33.8308 21.2957 33.8328 21.0909C33.8348 20.8861 33.7451 20.6887 33.5828 20.5414L33.0761 20.0968C34.1484 19.099 34.7422 17.7775 34.7344 16.4062ZM30.0203 17.4164C29.8524 17.2741 29.6274 17.1953 29.3939 17.1971C29.1603 17.1989 28.937 17.281 28.7718 17.4259C28.6067 17.5707 28.513 17.7667 28.511 17.9715C28.509 18.1764 28.5988 18.3737 28.761 18.5211L30.3784 19.9398C29.3545 20.3678 28.1858 20.4467 27.0993 20.1611C26.0129 19.8755 25.0862 19.2459 24.4994 18.3944C23.9126 17.543 23.7076 16.5307 23.9241 15.5541C24.1407 14.5775 24.7634 13.7063 25.6712 13.1099C26.579 12.5135 27.7072 12.2345 28.8365 12.3269C29.9658 12.4194 31.0155 12.8768 31.7819 13.6103C32.5482 14.3437 32.9763 15.3009 32.9831 16.2958C32.9899 17.2907 32.5748 18.2523 31.8185 18.9937L30.0203 17.4164Z" fill="white"/>
<path d="M40.9235 32.2781L42.2042 28.9062H45.0774L46.3581 32.2781C46.4327 32.475 46.5934 32.6377 46.8049 32.7306C47.0164 32.8235 47.2612 32.8389 47.4856 32.7734C47.71 32.708 47.8956 32.567 48.0015 32.3815C48.1074 32.196 48.1249 31.9812 48.0503 31.7844L44.4878 22.4094C44.4292 22.2531 44.3159 22.117 44.1639 22.0205C44.012 21.924 43.8292 21.8721 43.6417 21.8721C43.4541 21.8721 43.2713 21.924 43.1194 22.0205C42.9675 22.117 42.8541 22.2531 42.7956 22.4094L39.2331 31.7844C39.1584 31.9812 39.176 32.196 39.2819 32.3815C39.3878 32.567 39.5733 32.708 39.7977 32.7734C40.0221 32.8389 40.267 32.8235 40.4784 32.7306C40.6899 32.6377 40.8506 32.475 40.9253 32.2781H40.9235ZM43.6408 25.1266L44.4833 27.3437H42.7983L43.6408 25.1266Z" fill="white"/>
<path d="M34.7344 26.5625C34.4982 26.5625 34.2716 26.6448 34.1046 26.7913C33.9376 26.9378 33.8438 27.1365 33.8438 27.3438V32.0312C33.8452 33.0669 34.3148 34.0597 35.1496 34.792C35.9844 35.5243 37.1163 35.9363 38.2969 35.9375H42.4374L46.6465 38.8914C46.7775 38.9834 46.9355 39.0411 47.1022 39.0578C47.2689 39.0744 47.4377 39.0495 47.5889 38.9857C47.7402 38.9219 47.8678 38.822 47.9571 38.6973C48.0465 38.5727 48.0938 38.4285 48.0938 38.2812V35.9375H48.9844C50.165 35.9363 51.2968 35.5243 52.1316 34.792C52.9665 34.0597 53.4361 33.0669 53.4375 32.0312V22.6562C53.4361 21.6206 52.9665 20.6278 52.1316 19.8955C51.2968 19.1632 50.165 18.7512 48.9844 18.75H40.9688C40.7325 18.75 40.506 18.8323 40.339 18.9788C40.172 19.1253 40.0781 19.324 40.0781 19.5312C40.0781 19.7385 40.172 19.9372 40.339 20.0837C40.506 20.2302 40.7325 20.3125 40.9688 20.3125H48.9844C49.693 20.3125 50.3726 20.5594 50.8737 20.999C51.3747 21.4385 51.6562 22.0346 51.6562 22.6562V32.0312C51.6562 32.6529 51.3747 33.249 50.8737 33.6885C50.3726 34.1281 49.693 34.375 48.9844 34.375H47.2031C46.9669 34.375 46.7404 34.4573 46.5734 34.6038C46.4063 34.7503 46.3125 34.949 46.3125 35.1562V36.6555L43.3066 34.5461C43.1486 34.4353 42.9523 34.3749 42.75 34.375H38.2969C37.5882 34.375 36.9086 34.1281 36.4076 33.6885C35.9065 33.249 35.625 32.6529 35.625 32.0312V27.3438C35.625 27.1365 35.5312 26.9378 35.3641 26.7913C35.1971 26.6448 34.9706 26.5625 34.7344 26.5625Z" fill="white"/>
</g>
<defs>
<clipPath id="clip0_259_1554">
<rect width="57" height="50" fill="white"/>
</clipPath>
</defs>
</svg>
