<svg width="50" height="50" viewBox="0 0 50 50" fill="none" xmlns="http://www.w3.org/2000/svg">
<path d="M7.29199 8.1936C7.63608 8.19368 7.9335 8.30884 8.14551 8.52075C8.35759 8.73283 8.47363 9.03093 8.47363 9.37524C8.47356 9.71942 8.35752 10.0167 8.14551 10.2288C7.93349 10.4408 7.63617 10.5568 7.29199 10.5569H3.125C2.84431 10.5569 2.62125 10.6495 2.46875 10.802C2.31625 10.9545 2.22363 11.1776 2.22363 11.4583V33.1936H47.7764V11.4583C47.7764 11.1776 47.6838 10.9545 47.5312 10.802C47.3787 10.6495 47.1557 10.5569 46.875 10.5569H42.708C42.3638 10.5568 42.0665 10.4408 41.8545 10.2288C41.6425 10.0167 41.5264 9.71942 41.5264 9.37524C41.5264 9.03093 41.6424 8.73283 41.8545 8.52075C42.0665 8.30884 42.3639 8.19368 42.708 8.1936H46.875C48.619 8.1936 50.1396 9.71427 50.1396 11.4583V38.5413C50.1396 40.2852 48.619 41.8069 46.875 41.8069H31.3896V47.7766H34.375C34.7193 47.7766 35.0174 47.8917 35.2295 48.1038C35.4416 48.3158 35.5566 48.6139 35.5566 48.9583C35.5566 49.3026 35.4416 49.6007 35.2295 49.8127C35.0174 50.0248 34.7193 50.1399 34.375 50.1399H15.625C15.2807 50.1399 14.9826 50.0248 14.7705 49.8127C14.5584 49.6007 14.4434 49.3026 14.4434 48.9583C14.4434 48.6139 14.5584 48.3158 14.7705 48.1038C14.9826 47.8917 15.2807 47.7766 15.625 47.7766H18.6104V41.8069H3.125C1.38101 41.8069 -0.139648 40.2852 -0.139648 38.5413V11.4583C-0.139648 9.71427 1.38101 8.1936 3.125 8.1936H7.29199ZM20.9736 47.7766H29.0264V41.8069H20.9736V47.7766ZM2.22363 38.5413C2.22363 38.8218 2.31634 39.045 2.46875 39.1975C2.62125 39.35 2.84431 39.4436 3.125 39.4436H46.875C47.1557 39.4436 47.3787 39.35 47.5312 39.1975C47.6837 39.045 47.7764 38.8218 47.7764 38.5413V35.5569H2.22363V38.5413Z" fill="white" stroke="white" stroke-width="0.28"/>
<path d="M11.667 16.875V17.7083L14.792 22.9167C15.0003 23.3333 15.6253 23.5417 16.2503 23.3333L18.7503 21.875C19.3753 22.2917 20.0003 22.7083 20.8337 23.125V26.0417C20.8337 26.6667 21.2503 27.0833 21.8753 27.0833H28.1253C28.7503 27.0833 29.167 26.6667 29.167 26.0417V23.125C29.792 22.9167 30.6253 22.5 31.2503 21.875L33.7503 23.3333C34.167 23.5417 34.792 23.5417 35.2087 22.9167L38.3337 17.5C38.542 17.2917 38.542 16.875 38.3337 16.6667C38.3337 16.4583 38.1253 16.25 37.917 16.0417L35.417 14.7917C35.417 14.375 35.417 13.9583 35.417 13.5417C35.417 13.125 35.417 12.7083 35.417 12.2917L37.917 10.8333C38.1253 10.625 38.3337 10.4167 38.3337 10.2083C38.3337 10 38.3337 9.58333 38.3337 9.375L35.2087 4.16667C35.0003 3.75 34.3753 3.54167 33.7503 3.75L31.2503 5.20833C30.6253 4.79167 30.0003 4.375 29.167 3.95833V1.04167C29.167 0.416667 28.7503 0 28.1253 0H21.8753C21.2503 0 20.8337 0.416667 20.8337 1.04167V3.95833C20.2087 4.375 19.3753 4.79167 18.7503 5.20833L16.2503 3.75C15.8337 3.33333 15.2087 3.54167 14.792 4.16667L11.667 9.375C11.4587 9.58333 11.4587 10 11.667 10.2083C11.667 10.4167 11.8753 10.625 12.0837 10.8333L14.5837 12.2917V13.5417C14.5837 13.5417 14.5837 14.375 14.5837 14.7917L12.0837 16.25C11.8753 16.25 11.667 16.4583 11.667 16.875ZM16.2503 16.25C16.667 15.8333 16.8753 15.4167 16.8753 15C16.667 14.5833 16.667 13.9583 16.667 13.5417C16.667 13.125 16.667 12.5 16.8753 12.0833C16.8753 11.6667 16.667 11.25 16.4587 11.0417L13.9587 9.58333L16.042 6.04167L18.3337 7.29167C18.7503 7.5 19.167 7.5 19.5837 7.29167C20.417 6.66667 21.2503 6.04167 22.292 5.83333C22.7087 5.625 22.917 5.20833 22.917 4.79167V2.08333H27.0837V4.79167C27.0837 5.20833 27.292 5.625 27.7087 5.83333C28.7503 6.25 29.5837 6.66667 30.417 7.29167C30.8337 7.5 31.2503 7.70833 31.667 7.5L33.9587 6.25L36.042 9.79167L33.7503 11.0417C33.3337 11.25 33.1253 11.6667 33.3337 12.0833V13.5417C33.3337 13.5417 33.3337 14.5833 33.1253 15C33.1253 15.4167 33.3337 15.8333 33.542 16.0417L35.8337 17.2917L33.7503 20.8333L31.4587 19.5833C31.042 19.375 30.6253 19.375 30.2087 19.7917C29.3753 20.4167 28.542 21.0417 27.5003 21.25C27.0837 21.4583 26.8753 21.875 26.8753 22.2917V25H22.7087V22.2917C22.7087 21.875 22.5003 21.4583 22.0837 21.25C21.042 20.8333 20.2087 20.4167 19.3753 19.7917C19.167 19.5833 18.7503 19.5833 18.3337 19.7917L16.042 21.0417L13.9587 17.5L16.2503 16.25Z" fill="white"/>
<path d="M25 19.7917C28.5417 19.7917 31.25 17.0834 31.25 13.5417C31.25 10.0001 28.5417 7.29175 25 7.29175C21.4583 7.29175 18.75 10.0001 18.75 13.5417C18.75 17.0834 21.4583 19.7917 25 19.7917ZM25 9.37508C27.2917 9.37508 29.1667 11.2501 29.1667 13.5417C29.1667 15.8334 27.2917 17.7084 25 17.7084C22.7083 17.7084 20.8333 15.8334 20.8333 13.5417C20.8333 11.2501 22.7083 9.37508 25 9.37508Z" fill="white"/>
</svg>
