<svg width="250" height="55" viewBox="0 0 250 55" fill="none" xmlns="http://www.w3.org/2000/svg">
<path fill-rule="evenodd" clip-rule="evenodd" d="M109.547 44.1449V44.5177C109.547 47.3906 108.205 48.8228 103.883 48.8228C103.008 48.8228 101.344 48.8398 98.7031 48.772L99.0852 46.6703C101.361 46.7381 102.431 46.7126 103.883 46.7126C106.693 46.7126 107.313 46.2466 107.313 44.4584C107.313 42.9076 107.033 42.3737 105.156 42.0177L102.278 41.5262C99.4249 41.0262 98.7456 39.7127 98.7456 37.4076V36.9754C98.7456 34.4076 100.146 32.7974 104.282 32.7974C105.878 32.7974 106.71 32.772 109.079 32.8398L108.697 34.9414C106.668 34.8736 105.369 34.8991 104.095 34.8991C101.582 34.8991 100.979 35.3906 100.979 37.0686C100.979 38.4753 101.259 39.0855 103.025 39.3737L105.989 39.8906C108.655 40.3567 109.547 41.5686 109.547 44.1449ZM238.988 37.1618C240.355 37.1618 240.992 37.1618 241.476 37.1787L241.094 39.1279C241.034 39.1279 239.99 39.1025 239.2 39.1025C237.213 39.1025 237.069 39.916 237.069 41.3652V48.772H234.835V40.8482C234.835 38.1703 236.491 37.1618 238.988 37.1618ZM247.87 46.8737H249.814L249.424 48.772H247.895C244.482 48.772 243.649 47.8143 243.649 44.5855V33.2635L245.891 32.8398V37.2042H249.941L249.551 39.1533H245.891V44.5177C245.891 46.5092 246.205 46.8737 247.87 46.8737Z" fill="white"/>
<path fill-rule="evenodd" clip-rule="evenodd" d="M121.748 40.6018V48.7713H119.515V41.0764C119.515 39.5764 119.319 38.7883 117.043 38.7883C114.742 38.7883 114.225 39.5764 114.225 41.7713V48.7713H111.991V32.8391H114.225V37.873C114.658 37.3561 115.549 36.8476 117.4 36.8476C120.024 36.8476 121.748 37.8476 121.748 40.6018ZM133.788 40.9154V46.8476C133.788 48.2798 133.254 48.7713 131.615 48.7713H128.422C125.433 48.7713 124.244 47.6357 124.244 45.3306V44.8391C124.244 42.3306 125.603 41.3476 128.592 41.3476C130.298 41.3476 131.207 41.6781 131.657 42.0171V41.3476C131.657 39.8645 131.402 39.1018 128.906 39.1018C127.717 39.1018 126.223 39.1273 125.263 39.1527L125.671 37.2035C126.46 37.1781 127.717 37.1611 128.906 37.1611C132.336 37.1611 133.788 38.4323 133.788 40.9154ZM131.657 44.8137C131.657 43.6527 131.343 43.2035 129.186 43.2035H128.694C126.825 43.2035 126.333 43.5849 126.333 44.8391V45.3052C126.333 46.3561 126.826 46.873 128.422 46.873H131.657V44.8137ZM142.925 39.1272C142.857 39.1272 141.813 39.1018 141.023 39.1018C139.044 39.1018 138.892 39.9069 138.892 41.3645V48.7713H136.658V40.8476C136.658 38.1612 138.323 37.1527 140.811 37.1527C142.178 37.1527 142.815 37.1527 143.307 37.1781L142.925 39.1272Z" fill="white"/>
<path fill-rule="evenodd" clip-rule="evenodd" d="M145.482 37.2035H147.715V48.6611C147.715 51.8221 146.653 52.7374 143.775 52.7374C142.688 52.7374 142.221 52.712 141.983 52.6866L142.365 50.8306C142.773 50.856 143.138 50.8561 143.707 50.8561C145.049 50.8561 145.482 50.6103 145.482 48.6611V37.2035ZM159.73 40.9238V46.8476C159.73 48.2882 159.204 48.7798 157.557 48.7798H154.364C151.383 48.7798 150.186 47.6357 150.186 45.3306V44.8391C150.186 42.3306 151.553 41.3476 154.534 41.3476C156.24 41.3476 157.157 41.6781 157.599 42.0171V41.3476C157.599 39.8645 157.344 39.1103 154.856 39.1103C153.659 39.1103 152.164 39.1273 151.205 39.1527L151.613 37.2035C152.402 37.1781 153.659 37.1611 154.856 37.1611C158.287 37.1611 159.73 38.4323 159.73 40.9238ZM157.599 44.8137C157.599 43.6527 157.285 43.2035 155.128 43.2035H154.635C152.767 43.2035 152.275 43.5848 152.275 44.8391V45.3052C152.275 46.3561 152.767 46.873 154.364 46.873H157.599V44.8137ZM172.391 40.6018V48.7713H170.149V41.0764C170.149 39.5764 169.962 38.7883 167.678 38.7883C165.377 38.7883 164.867 39.5764 164.867 41.7713V48.7713H162.626V32.8391H164.867V37.873C165.292 37.3561 166.184 36.8476 168.043 36.8476C170.658 36.8476 172.391 37.8476 172.391 40.6018ZM187.734 32.8391L193.525 48.7713H191.139L189.543 44.212H183.302L181.723 48.7713H179.464L185.255 32.8391H187.734ZM188.847 42.195L186.418 35.212L183.99 42.195H188.847ZM195.81 37.2035H198.051V48.7713H195.81V37.2035ZM205.065 37.1611C206.424 37.1611 207.069 37.1611 207.553 37.1866L207.171 39.1357C207.112 39.1357 206.067 39.1103 205.278 39.1103C203.291 39.1103 203.146 39.9154 203.146 41.373V48.7798H200.904V40.8561C200.904 38.1696 202.569 37.1611 205.065 37.1611ZM219.492 42.4917V43.5001C219.492 47.4154 218.49 49.1357 214.423 49.1357C213.081 49.1357 212.189 48.7544 211.612 48.2205V52.695H209.353V42.3815C209.353 38.1442 210.822 36.8476 214.448 36.8476C218.091 36.8476 219.492 38.0764 219.492 42.4917ZM217.216 42.4917C217.216 39.2205 216.749 38.7713 214.423 38.7713C212.122 38.7713 211.586 39.2459 211.586 42.3815V43.9662C211.586 46.5849 212.189 47.212 214.423 47.212C216.809 47.212 217.216 46.6527 217.216 43.5001V42.4917ZM232.195 42.373V43.6103C232.195 47.9069 230.726 49.1357 227.058 49.1357C223.398 49.1357 221.929 47.9069 221.929 43.6103V42.373C221.929 38.0764 223.398 36.8476 227.058 36.8476C230.726 36.8476 232.195 38.0764 232.195 42.373ZM229.919 42.373C229.919 39.2459 229.427 38.7713 227.058 38.7713C224.697 38.7713 224.205 39.2459 224.205 42.373V43.6103C224.205 46.7374 224.697 47.212 227.058 47.212C229.427 47.212 229.919 46.7374 229.919 43.6103V42.373Z" fill="white"/>
<path fill-rule="evenodd" clip-rule="evenodd" d="M148.053 32.8564C148.053 33.6954 147.4 34.3818 146.593 34.3818C145.786 34.3818 145.132 33.6954 145.132 32.8564C145.132 32.009 145.786 31.3225 146.593 31.3225C147.4 31.3225 148.053 32.009 148.053 32.8564ZM198.39 32.8564C198.39 33.6954 197.736 34.3818 196.929 34.3818C196.123 34.3818 195.469 33.6954 195.469 32.8564C195.469 32.009 196.123 31.3225 196.929 31.3225C197.736 31.3225 198.39 32.009 198.39 32.8564ZM106.047 5.14455C106.047 5.99201 105.393 6.67845 104.586 6.67845C103.78 6.67845 103.126 5.99201 103.126 5.14455C103.126 4.2971 103.78 3.61914 104.586 3.61914C105.393 3.61914 106.047 4.2971 106.047 5.14455Z" fill="white"/>
<path fill-rule="evenodd" clip-rule="evenodd" d="M110.029 5.14468C110.029 5.99214 109.375 6.67858 108.569 6.67858C107.762 6.67858 107.108 5.99214 107.108 5.14468C107.108 4.29722 107.762 3.61927 108.569 3.61927C109.375 3.61927 110.029 4.29722 110.029 5.14468ZM127.955 9.41585V20.9837H114.971C114.963 20.9837 110.301 20.9837 110.301 20.9837C109.571 20.9837 108.942 20.8706 108.416 20.6447C107.89 20.4187 107.482 20.043 107.193 19.5175H104.782C102.727 19.5175 101.204 19.1023 100.214 18.2718C99.2229 17.4469 98.7275 16.2351 98.7275 14.6362C98.7275 12.7492 99.2879 11.3678 100.409 10.4921C101.869 9.34807 103.084 9.41585 105.062 9.41585H108.9V16.8989C108.9 17.5147 109.016 18.0317 109.248 18.4498C109.48 18.8679 109.978 19.0769 110.743 19.0769C110.751 19.0769 118.58 19.0769 118.58 19.0769C118.291 18.3311 118.071 17.5966 117.918 16.8735C117.776 16.1447 117.705 15.4723 117.705 14.8565C117.705 14.0373 117.83 13.2831 118.079 12.5938C118.328 11.8989 118.713 11.3029 119.234 10.8057C119.752 10.3057 120.355 9.97516 120.924 9.7294C121.705 9.39889 122.945 9.41585 124.031 9.41585H127.955ZM106.718 11.3226H104.96C103.746 11.3226 102.778 11.2464 102.065 11.7718C101.346 12.2972 100.986 13.1786 100.986 14.4159C100.986 15.5797 101.348 16.4158 102.073 16.9243C102.803 17.4328 103.842 17.687 105.189 17.687H106.718V11.3226ZM125.781 11.3226H124.813C123.225 11.3226 122.019 11.2972 121.195 11.8735C120.375 12.4441 119.964 13.43 119.964 14.8311C119.964 15.1418 120.012 15.6334 120.109 16.3057C120.205 16.978 120.485 17.9046 120.949 19.0854H125.781V11.3226ZM176.321 1.28027H178.503V20.9837H169.451C168.948 20.9837 168.503 20.8989 168.118 20.7294C167.728 20.5543 167.394 20.2492 167.116 19.8142C166.907 20.108 166.579 20.3763 166.131 20.6193C165.678 20.8679 165.002 20.9893 164.102 20.9837H144.581C143.477 20.9837 142.585 20.6983 141.906 20.1277C141.232 19.5571 140.895 18.5882 140.895 17.221V1.69552L143.078 1.28027V16.8989C143.078 17.6108 143.191 18.1503 143.417 18.5175C143.638 18.8904 144.13 19.0769 144.895 19.0769H151.908V11.8565H154.082V19.0769H158.625V11.8565H160.807V19.0769H163.609C164.323 19.0769 164.781 18.9102 164.985 18.5769C165.195 18.2379 165.299 17.687 165.299 16.9243V9.39893H167.482V18.1531C167.482 18.317 167.541 18.4582 167.66 18.5769C167.784 18.6955 167.937 18.7887 168.118 18.8565C168.3 18.93 168.492 18.9865 168.696 19.026C168.905 19.0599 169.089 19.0769 169.248 19.0769H176.321V1.28027Z" fill="white"/>
<path fill-rule="evenodd" clip-rule="evenodd" d="M134.094 21.7803C134.094 23.6871 133.678 23.9243 132.371 23.9243C131.81 23.9243 131.454 23.9244 131.063 23.8989L130.689 25.7125C130.91 25.7379 131.369 25.7549 132.43 25.7549C135.241 25.7549 136.277 24.865 136.277 21.7803V9.39893H134.094V21.7803ZM197.754 21.7803C197.754 23.6871 197.338 23.9243 196.021 23.9243C195.461 23.9243 195.113 23.9244 194.714 23.8989L194.34 25.7125C194.569 25.7379 195.028 25.7549 196.089 25.7549C198.892 25.7549 199.936 24.865 199.936 21.7803V9.39893H197.754V21.7803Z" fill="white"/>
<path fill-rule="evenodd" clip-rule="evenodd" d="M183.514 1.28027H185.696V20.9837H183.514V1.28027ZM250 14.6277V15.7888C250 19.8396 248.616 20.9922 245.16 20.9922C245.036 20.9922 244.914 20.9893 244.795 20.9837L244.804 20.9922H233.553C233.043 20.9922 232.593 20.9074 232.203 20.7379C231.812 20.5627 231.478 20.2577 231.201 19.8227C230.988 20.1108 230.776 20.4244 230.326 20.6701C229.876 20.9159 229.35 20.9922 228.772 20.9922H208.249C207.139 20.9922 206.248 20.7068 205.574 20.1362C204.9 19.5656 204.563 18.5967 204.563 17.2294V1.28876H206.746V16.9074C206.74 17.6136 206.85 18.1531 207.077 18.526C207.303 18.8989 207.799 19.0854 208.563 19.0854H215.466V1.28876H217.648V9.41585C217.648 9.41585 223.983 9.40737 224.484 9.40737C225.933 9.40737 227.122 9.57689 228.05 9.91588C228.973 10.2492 229.698 10.7153 230.224 11.3142C230.751 11.913 231.11 12.6362 231.303 13.4836C231.489 14.3311 231.583 15.2548 231.583 16.2548V18.1616C231.583 18.3255 231.645 18.4667 231.77 18.5854C231.888 18.704 232.036 18.7972 232.211 18.865C232.387 18.9385 232.579 18.995 232.788 19.0345C232.998 19.0684 233.182 19.0854 233.341 19.0854H240.881C240.499 18.2972 240.32 17.2294 240.32 15.7888V14.6277C240.32 10.5769 241.704 9.41585 245.16 9.41585C248.616 9.41585 250 10.5769 250 14.6277ZM229.4 16.7125C229.4 15.7859 229.324 14.9837 229.171 14.3057C229.013 13.6221 228.727 13.0543 228.314 12.6023C227.9 12.1447 227.343 11.8029 226.641 11.5769C225.936 11.348 224.102 11.3311 223.007 11.3311H217.648V19.0854H227.719C228.427 19.0854 228.885 18.9187 229.095 18.5854C229.299 18.2464 229.4 17.6955 229.4 16.9328V16.7125ZM247.852 14.6277C247.852 11.6701 247.385 11.3226 245.16 11.3226C242.936 11.3226 242.469 11.6701 242.469 14.6277V15.7803C242.469 18.7379 242.936 19.0854 245.16 19.0854C247.385 19.0854 247.852 18.7379 247.852 15.7803V14.6277ZM124.304 5.15316C124.304 6.00062 123.65 6.68706 122.843 6.68706C122.037 6.68706 121.383 6.00062 121.383 5.15316C121.383 4.31418 122.037 3.6277 122.843 3.6277C123.65 3.6277 124.304 4.31418 124.304 5.15316Z" fill="white"/>
<path fill-rule="evenodd" clip-rule="evenodd" d="M128.286 5.14408C128.286 5.99154 127.632 6.67798 126.826 6.67798C126.019 6.67798 125.365 5.99154 125.365 5.14408C125.365 4.29662 126.019 3.61866 126.826 3.61866C127.632 3.61866 128.286 4.29662 128.286 5.14408ZM159.509 5.14408C159.509 5.99154 158.855 6.67798 158.048 6.67798C157.242 6.67798 156.588 5.99154 156.588 5.14408C156.588 4.29662 157.242 3.61866 158.048 3.61866C158.855 3.61866 159.509 4.29662 159.509 5.14408ZM163.491 5.14408C163.491 5.99154 162.837 6.67798 162.031 6.67798C161.224 6.67798 160.57 5.99154 160.57 5.14408C160.57 4.29662 161.224 3.61866 162.031 3.61866C162.837 3.61866 163.491 4.29662 163.491 5.14408ZM161.496 1.52541C161.496 2.37287 160.842 3.05931 160.035 3.05931C159.229 3.05931 158.575 2.37287 158.575 1.52541C158.575 0.686431 159.229 0 160.035 0C160.842 0 161.496 0.686431 161.496 1.52541Z" fill="white"/>
<path d="M72.7864 33.1193C72.7864 31.1616 71.2749 29.5769 69.4068 29.5769C69.2795 29.5769 69.1267 29.5853 69.0248 29.5938C68.9455 29.6051 68.8662 29.6108 68.787 29.6108C67.7341 29.6108 66.8849 28.721 66.8849 27.6193C66.8849 26.526 67.7341 25.6362 68.787 25.6362H69.5936C69.0077 24.687 67.9973 24.0684 66.8424 24.0684C66.1377 24.0684 65.4754 24.3057 64.9404 24.7124C64.3885 25.1362 63.7091 25.382 62.9704 25.382C61.1362 25.382 59.6588 23.8311 59.6588 21.9158C59.6588 21.8876 59.6588 21.8594 59.6588 21.8311C59.6588 21.7972 59.6588 21.7662 59.6588 21.7379C59.6588 19.8396 58.1897 18.3057 56.3811 18.3057H43.0498C45.784 21.6446 49.8174 23.7718 54.3348 23.8226C54.9886 25.687 55.9735 27.3819 57.2132 28.8396C55.3904 29.3876 53.6837 30.1616 52.093 31.1616C53.4516 33.2718 55.2772 35.026 57.4255 36.2464C58.0369 34.4837 58.9456 32.865 60.1004 31.4752C62.3166 33.026 64.9488 33.9752 67.7849 34.1108C68.8548 36.7548 70.5956 39.0345 72.7864 40.704V33.1193Z" fill="white"/>
<path d="M49.0371 39.8312C49.0371 38.3821 47.9078 37.2041 46.5237 37.2041C46.4303 37.2041 46.3114 37.2126 46.2435 37.2126C46.1812 37.2239 46.1218 37.2295 46.0652 37.2295C45.284 37.2295 44.647 36.5685 44.647 35.7465C44.647 34.9329 45.284 34.2719 46.0652 34.2719H46.6595C46.2265 33.5685 45.4793 33.1024 44.6217 33.1024C44.0952 33.1024 43.6026 33.2804 43.2035 33.5855C42.7959 33.899 42.2865 34.0854 41.7345 34.0854C40.3759 34.077 39.2722 32.9329 39.2722 31.5007C39.2722 31.4837 39.2722 31.464 39.2722 31.4414C39.2722 31.4188 39.2722 31.3962 39.2722 31.3736C39.2722 29.9668 38.1852 28.8228 36.8436 28.8228H26.9258C28.9552 31.3058 31.961 32.8905 35.3151 32.9244C35.8076 34.3058 36.5378 35.5685 37.4549 36.6533C36.102 37.06 34.8339 37.6363 33.6508 38.382C34.6613 39.9498 36.02 41.2549 37.6164 42.1617C38.0664 40.8482 38.7456 39.6448 39.6117 38.6109C41.259 39.7634 43.212 40.4753 45.3178 40.5685C46.116 42.5431 47.4068 44.2295 49.0371 45.4753V39.8312Z" fill="white"/>
<path d="M34.305 50.9831C34.305 49.9492 33.4984 49.1102 32.5134 49.1102C32.4399 49.1102 32.3719 49.1159 32.3097 49.1272C32.27 49.1328 32.2275 49.1356 32.1822 49.1356C31.6302 49.1356 31.1803 48.6611 31.1803 48.0848C31.1803 47.5001 31.6302 47.0255 32.1822 47.0255H32.6152C32.3011 46.534 31.7661 46.2035 31.1633 46.2035C30.7811 46.2035 30.4331 46.3306 30.1528 46.5424C29.8641 46.7628 29.499 46.8984 29.1084 46.8984C28.1404 46.8984 27.3592 46.0763 27.3592 45.0594C27.3592 45.0481 27.3592 45.034 27.3592 45.017C27.3592 45.0001 27.3592 44.9831 27.3592 44.9662C27.3592 43.9662 26.5864 43.1526 25.6269 43.1526H18.5791C20.0226 44.9153 22.154 46.0424 24.54 46.0678C24.8881 47.0594 25.4147 47.9577 26.0685 48.7204C25.1061 49.0142 24.2033 49.4238 23.3598 49.9492C24.0731 51.0679 25.0409 52.0001 26.1788 52.6441C26.5014 51.7034 26.9856 50.856 27.597 50.1187C28.7688 50.9323 30.1529 51.4407 31.6558 51.5085C32.2247 52.9068 33.1417 54.1103 34.305 55.0001V50.9831Z" fill="white"/>
<path d="M1.59626 45.5939C1.47739 45.9159 1.18027 46.1363 0.83213 46.1363C0.3736 46.1363 0 45.7464 0 45.2634C0 45.1956 0.00851617 45.1278 0.0254987 45.06C6.47039 19.56 28.6496 0.754883 55.0151 0.754883C56.2548 0.754883 57.5454 0.805708 58.7682 0.890453C59.2267 0.915877 59.6088 1.28031 59.6088 1.76336C59.6088 2.25489 59.2267 2.60233 58.7512 2.65318C33.1924 5.12776 11.6245 22.0684 1.59626 45.5939Z" fill="white"/>
</svg>
